<?xml version="1.0" encoding="UTF-8"?> <svg xmlns="http://www.w3.org/2000/svg" width="577" height="568" viewBox="0 0 577 568" fill="none"><path d="M527.981 486.797H52.2087C52.008 486.797 51.8156 486.717 51.6737 486.575C51.5318 486.433 51.452 486.241 51.452 486.04C51.452 485.839 51.5318 485.647 51.6737 485.505C51.8156 485.363 52.008 485.283 52.2087 485.283H527.981C528.182 485.283 528.374 485.363 528.516 485.505C528.658 485.647 528.738 485.839 528.738 486.04C528.738 486.241 528.658 486.433 528.516 486.575C528.374 486.717 528.182 486.797 527.981 486.797ZM529.061 473.85H358.602C358.402 473.85 358.209 473.77 358.067 473.628C357.925 473.486 357.846 473.294 357.846 473.093C357.846 472.892 357.925 472.7 358.067 472.558C358.209 472.416 358.402 472.336 358.602 472.336H529.061C529.262 472.336 529.455 472.416 529.597 472.558C529.738 472.7 529.818 472.892 529.818 473.093C529.818 473.294 529.738 473.486 529.597 473.628C529.455 473.77 529.262 473.85 529.061 473.85Z" fill="#DBDBDD"></path><path d="M191.064 401.329C214.632 401.329 233.738 382.223 233.738 358.655C233.738 335.087 214.632 315.981 191.064 315.981C167.496 315.981 148.39 335.087 148.39 358.655C148.39 382.223 167.496 401.329 191.064 401.329Z" fill="#ECEDF2"></path><path d="M493.442 397.404C493.442 397.404 491.929 401.859 479.322 389.252C466.715 376.646 440.681 343.794 457.438 337.398C474.195 331.002 503.578 387.275 493.442 397.404ZM473.709 402.021C473.709 402.021 482.553 397.354 473.709 388.509C464.865 379.663 444.756 363.288 438.731 373.768C432.706 384.248 468.513 407.218 473.709 402.021Z" fill="#ECEDF2"></path><path d="M503.68 390.095C508.682 386.312 514.069 371.859 524.005 349.552C533.94 327.244 553.516 322.078 539.025 313.713C524.535 305.347 499.166 318.05 494.948 341.648C490.729 365.245 498.678 393.888 503.68 390.095ZM519.501 386.293C519.501 386.293 522.906 386.386 534.975 377.156C547.044 367.926 579.486 370.864 576.13 357.442C572.774 344.02 557.78 345.849 543.272 354.226C528.764 362.603 505.091 378.656 519.501 386.293ZM526.519 400.682C526.519 400.682 523.653 408.248 548.193 402.745C572.732 397.242 573.194 388.067 563.559 384.053C553.925 380.039 527.896 391.507 526.519 400.682Z" fill="#ECEDF2"></path><path d="M517.613 412.868C517.472 412.869 517.335 412.83 517.215 412.756C517.096 412.683 516.999 412.578 516.936 412.453C516.873 412.328 516.846 412.187 516.858 412.048C516.87 411.908 516.92 411.774 517.004 411.662C517.18 411.423 521.39 405.773 528.838 399.982C535.728 394.625 546.772 388.191 560.26 387.96H560.273C560.474 387.958 560.667 388.036 560.81 388.177C560.953 388.318 561.035 388.509 561.037 388.71C561.038 388.911 560.96 389.104 560.82 389.247C560.679 389.39 560.487 389.472 560.287 389.473C547.234 389.697 536.504 395.945 529.803 401.149C522.507 406.813 518.263 412.5 518.222 412.56C518.152 412.656 518.06 412.733 517.954 412.787C517.848 412.84 517.731 412.868 517.613 412.868ZM505.358 412.868C505.185 412.868 505.017 412.809 504.882 412.7C504.748 412.592 504.655 412.44 504.618 412.271C504.588 412.129 501.561 397.869 502.537 379.854C503.105 369.26 504.93 359.453 507.952 350.704C511.735 339.732 517.41 330.411 524.851 322.981C524.992 322.839 525.185 322.759 525.386 322.759C525.587 322.759 525.779 322.839 525.921 322.981C526.063 323.123 526.143 323.315 526.143 323.516C526.143 323.717 526.063 323.909 525.921 324.051C509.463 340.509 504.942 363.507 504.051 379.895C503.082 397.716 506.071 411.811 506.101 411.951C506.144 412.147 506.106 412.352 505.998 412.52C505.889 412.688 505.718 412.807 505.523 412.85C505.469 412.863 505.413 412.869 505.358 412.868ZM509.713 415.814C509.512 415.814 509.32 415.734 509.178 415.592C509.036 415.45 508.956 415.258 508.956 415.057C508.956 414.584 509.124 403.34 515.49 390.434C519.15 382.953 524.33 376.317 530.698 370.949C538.626 364.277 548.507 359.489 560.061 356.72C560.159 356.695 560.26 356.69 560.359 356.705C560.458 356.72 560.553 356.754 560.639 356.806C560.725 356.858 560.799 356.926 560.858 357.007C560.918 357.088 560.96 357.18 560.983 357.277C561.007 357.375 561.01 357.476 560.994 357.575C560.978 357.674 560.943 357.769 560.89 357.854C560.836 357.939 560.767 358.012 560.685 358.07C560.604 358.128 560.511 358.17 560.413 358.192C534.824 364.326 522.613 379.443 516.877 391.045C510.643 403.648 510.471 414.957 510.469 415.07C510.466 415.269 510.385 415.458 510.243 415.597C510.102 415.736 509.911 415.814 509.713 415.814ZM496.225 409.951C496.042 409.953 495.865 409.889 495.725 409.771C495.586 409.652 495.495 409.487 495.468 409.306C493.045 392.971 483.766 376.065 476.407 364.76C468.422 352.49 460.923 344 460.849 343.915C460.716 343.764 460.648 343.567 460.66 343.366C460.672 343.166 460.764 342.978 460.914 342.845C461.065 342.712 461.262 342.644 461.463 342.656C461.663 342.668 461.851 342.76 461.984 342.91C462.06 342.995 469.632 351.57 477.686 363.935C485.124 375.367 494.511 392.479 496.981 409.083C496.996 409.181 496.991 409.282 496.967 409.378C496.943 409.475 496.9 409.566 496.841 409.646C496.782 409.726 496.708 409.793 496.622 409.844C496.537 409.895 496.442 409.929 496.344 409.944C496.298 409.94 496.261 409.951 496.225 409.951ZM483.357 413.78C483.205 413.781 483.056 413.735 482.93 413.649C482.804 413.563 482.707 413.442 482.651 413.3C478.064 401.562 467.771 392.16 459.951 386.339C451.438 380.005 443.905 376.42 443.829 376.386C443.648 376.3 443.507 376.146 443.44 375.957C443.372 375.768 443.382 375.56 443.468 375.378C443.554 375.196 443.708 375.056 443.897 374.989C444.086 374.921 444.295 374.931 444.476 375.017C444.552 375.053 452.193 378.689 460.828 385.105C468.823 391.047 479.345 400.667 484.066 412.749C484.139 412.936 484.135 413.144 484.055 413.328C483.974 413.512 483.824 413.656 483.637 413.729C483.548 413.763 483.453 413.781 483.357 413.78Z" fill="#DBDBDD"></path><path d="M466.551 255.43C483.497 255.43 497.235 241.692 497.235 224.746C497.235 207.8 483.497 194.062 466.551 194.062C449.605 194.062 435.867 207.8 435.867 224.746C435.867 241.692 449.605 255.43 466.551 255.43Z" fill="#ECEDF2"></path><path d="M329.086 239.647C331.915 235.147 333.486 229.971 333.637 224.657C333.787 219.343 332.51 214.087 329.939 209.434C327.368 204.781 323.598 200.902 319.019 198.201C314.441 195.5 309.222 194.075 303.907 194.075C303.352 194.075 302.802 194.092 302.255 194.123C297.581 141.994 253.781 101.136 200.436 101.136C143.975 101.136 98.2026 146.916 98.2026 203.369C98.2026 259.823 143.983 305.603 200.436 305.603C222.335 305.635 243.66 298.602 261.244 285.55C266.683 302.913 282.895 315.51 302.049 315.51C325.66 315.51 344.802 296.369 344.802 272.757C344.807 266.417 343.399 260.156 340.68 254.428C337.961 248.701 334.001 243.652 329.086 239.647Z" fill="#ECEDF2"></path><path d="M225.838 90.6143C225.838 90.6143 236.063 94.6399 232.964 103.779C239.005 110.131 234.667 114.467 230.486 115.088C236.371 123.143 233.583 127.168 228.008 125.776C220.418 129.493 213.442 127.323 214.221 119.889C215.001 112.454 225.838 90.6143 225.838 90.6143Z" fill="#433F34"></path><path d="M295.819 567.522C441.611 567.522 559.798 554.025 559.798 537.377C559.798 520.728 441.611 507.232 295.819 507.232C150.028 507.232 31.8403 520.728 31.8403 537.377C31.8403 554.025 150.028 567.522 295.819 567.522Z" fill="#ECEDF2"></path><path d="M390.34 545.383C470.413 545.383 535.325 540.182 535.325 533.766C535.325 527.35 470.413 522.149 390.34 522.149C310.267 522.149 245.355 527.35 245.355 533.766C245.355 540.182 310.267 545.383 390.34 545.383Z" fill="#DBDBDD"></path><path d="M188.198 550.961C231.827 550.961 267.195 545.482 267.195 538.723C267.195 531.965 231.827 526.486 188.198 526.486C144.569 526.486 109.201 531.965 109.201 538.723C109.201 545.482 144.569 550.961 188.198 550.961Z" fill="#DBDBDD"></path><path d="M399.84 231.907L452.582 535.843L460.548 535.747L407.901 226.945L399.84 231.907ZM290.362 537.824L281.633 537.591L336.121 370.524L344.851 370.755L290.362 537.824ZM391.439 536.59L400.298 536.144L409.642 369.627L400.783 370.074L391.439 536.59Z" fill="#443F34"></path><path d="M428.775 404.522L296.714 406.134L334.46 208.869L466.52 207.257L428.775 404.522Z" fill="white"></path><path d="M296.714 406.891C296.603 406.891 296.493 406.866 296.392 406.819C296.291 406.771 296.202 406.702 296.131 406.617C296.06 406.531 296.009 406.43 295.981 406.322C295.953 406.214 295.95 406.102 295.971 405.992L333.717 208.727C333.749 208.556 333.84 208.401 333.974 208.289C334.108 208.177 334.276 208.115 334.451 208.112L466.511 206.501H466.521C466.632 206.501 466.742 206.525 466.843 206.573C466.944 206.62 467.033 206.689 467.104 206.775C467.175 206.861 467.226 206.961 467.254 207.069C467.281 207.177 467.285 207.29 467.264 207.399L429.518 404.664C429.485 404.836 429.394 404.99 429.261 405.103C429.127 405.215 428.959 405.277 428.784 405.279L296.722 406.891H296.714ZM335.086 209.618L297.63 405.366L428.145 403.773L465.601 208.025L335.086 209.618Z" fill="#DBDBDD"></path><path d="M338.781 214.032L460.198 212.551L424.452 399.36L303.036 400.841L338.781 214.032Z" fill="#DBDBDD"></path><path d="M429.739 307.287H335.879C332.08 307.287 329.53 304.194 330.181 300.376L342.386 228.832C343.039 225.017 346.645 221.924 350.443 221.924H444.304C448.103 221.924 450.655 225.017 450.002 228.832L437.796 300.376C437.146 304.192 433.538 307.287 429.739 307.287Z" fill="white"></path><path d="M429.739 308.043H335.879C333.84 308.043 332.044 307.247 330.822 305.798C329.57 304.315 329.078 302.344 329.434 300.249L341.645 228.711C342.354 224.55 346.302 221.173 350.447 221.173H444.308C446.347 221.173 448.142 221.969 449.364 223.418C450.617 224.901 451.11 226.873 450.753 228.967L438.545 300.511C437.832 304.661 433.884 308.043 429.739 308.043ZM350.443 222.681C347.004 222.681 343.724 225.497 343.134 228.961L330.926 300.505C330.644 302.151 331.019 303.685 331.978 304.822C332.909 305.925 334.294 306.524 335.879 306.524H429.739C433.18 306.524 436.459 303.708 437.051 300.244L449.257 228.711C449.538 227.064 449.164 225.531 448.205 224.394C447.276 223.292 445.889 222.692 444.304 222.692L350.443 222.681Z" fill="#DBDBDD"></path><path d="M440.348 236.422L436.395 259.592C436.031 261.724 434.015 263.455 431.89 263.455H393.456C391.335 263.455 389.909 261.724 390.272 259.592L394.226 236.422C394.589 234.29 396.606 232.559 398.728 232.559H437.163C439.285 232.559 440.712 234.29 440.348 236.422Z" fill="#DBDBDD"></path><path d="M431.669 239.063C434.624 239.47 437.654 241.613 439.236 242.897L436.387 259.592C436.024 261.724 434.007 263.455 431.883 263.455H393.456C391.335 263.455 389.909 261.724 390.272 259.592L391.239 253.917C396.865 250.024 403.836 246.191 407.171 248.27C413.268 252.054 416.289 254.908 420.791 249.083C425.294 243.259 427.719 238.522 431.669 239.063Z" fill="#738942"></path><path d="M387.535 237.302H350.854C349.923 237.302 349.297 236.545 349.458 235.599C349.544 235.133 349.786 234.71 350.146 234.4C350.505 234.09 350.959 233.913 351.433 233.896H388.114C389.044 233.896 389.669 234.653 389.51 235.599C389.424 236.065 389.181 236.488 388.822 236.798C388.463 237.108 388.009 237.285 387.535 237.302ZM385.847 247.194H349.166C348.236 247.194 347.61 246.437 347.77 245.491C347.856 245.025 348.099 244.602 348.458 244.292C348.817 243.982 349.271 243.805 349.745 243.788H386.426C387.357 243.788 387.981 244.545 387.822 245.491C387.736 245.957 387.494 246.38 387.135 246.69C386.775 247 386.321 247.177 385.847 247.194ZM384.16 257.087H347.479C346.548 257.087 345.922 256.331 346.083 255.385C346.169 254.919 346.411 254.496 346.77 254.186C347.129 253.877 347.582 253.699 348.056 253.682H384.739C385.67 253.682 386.294 254.439 386.135 255.385C386.049 255.851 385.806 256.274 385.447 256.584C385.088 256.893 384.634 257.071 384.16 257.087ZM382.472 266.975H345.792C344.861 266.975 344.235 266.219 344.394 265.273C344.48 264.807 344.722 264.384 345.081 264.074C345.441 263.764 345.895 263.587 346.369 263.57H383.049C383.982 263.57 384.606 264.327 384.447 265.273C384.362 265.739 384.119 266.162 383.76 266.472C383.401 266.781 382.946 266.959 382.472 266.975ZM431.896 276.867H344.104C343.173 276.867 342.547 276.111 342.706 275.165C342.792 274.698 343.035 274.275 343.394 273.966C343.753 273.656 344.207 273.479 344.681 273.462H432.473C433.404 273.462 434.03 274.219 433.869 275.165C433.783 275.631 433.541 276.054 433.182 276.363C432.823 276.673 432.37 276.851 431.896 276.867ZM430.209 286.759H342.417C341.484 286.759 340.86 286.003 341.019 285.066C341.105 284.6 341.347 284.177 341.707 283.867C342.066 283.558 342.52 283.38 342.994 283.364H430.786C431.716 283.364 432.343 284.12 432.182 285.066C432.094 285.53 431.851 285.951 431.492 286.259C431.134 286.566 430.681 286.743 430.209 286.759ZM428.519 296.651H340.727C339.797 296.651 339.172 295.894 339.331 294.949C339.419 294.484 339.663 294.063 340.022 293.755C340.381 293.448 340.834 293.271 341.306 293.255H429.098C430.029 293.255 430.655 294.012 430.494 294.949C430.408 295.415 430.166 295.838 429.807 296.148C429.447 296.457 428.993 296.635 428.519 296.651Z" fill="#ECEDF2"></path><path d="M413.696 212.821L385.397 213.165C382.792 213.198 381.076 211.154 381.566 208.601L381.604 208.394C382.094 205.841 384.601 203.746 387.206 203.714L415.504 203.368C418.109 203.336 419.825 205.381 419.337 207.935L419.297 208.139C418.809 210.695 416.301 212.791 413.696 212.821Z" fill="#38352C"></path><path d="M385.344 213.642C383.967 213.642 382.768 213.114 381.964 212.155C381.16 211.196 380.846 209.885 381.109 208.514L381.148 208.307C381.676 205.549 384.394 203.277 387.202 203.243L415.5 202.897H415.567C416.946 202.897 418.145 203.423 418.947 204.384C419.749 205.345 420.067 206.654 419.802 208.025L419.764 208.23C419.237 210.99 416.518 213.262 413.711 213.296L385.412 213.64L385.344 213.642ZM415.572 203.843H415.517L387.219 204.189C384.831 204.217 382.525 206.145 382.077 208.485L382.037 208.691C381.829 209.781 382.06 210.797 382.688 211.548C383.316 212.299 384.275 212.715 385.399 212.694L413.697 212.35C416.085 212.32 418.393 210.392 418.841 208.052L418.879 207.848C419.089 206.756 418.856 205.742 418.228 204.991C417.6 204.24 416.658 203.843 415.565 203.843H415.572Z" fill="#38352C"></path><path d="M430.273 411.576L292.501 413.258C290.952 413.277 289.932 412.061 290.231 410.543L291.745 402.632C292.034 401.119 293.525 399.868 295.074 399.849L432.848 398.168C434.395 398.149 435.415 399.365 435.118 400.882L433.604 408.794C433.313 410.318 431.822 411.557 430.273 411.576Z" fill="#738942"></path><path d="M298.324 101.136L284.382 105.784C284.382 105.784 275.525 156.63 269.047 156.746C267.678 156.77 260.752 155.826 257.353 154.653C257.801 157.472 255.868 174.918 250.921 181.064C262.169 183.395 274.28 185.551 282.513 179.515C302.717 164.729 298.324 101.136 298.324 101.136ZM178.274 485.121C178.274 485.121 176.019 498.787 172.907 504.094C169.795 509.4 195.96 521.015 195.96 521.015C195.96 521.015 196.416 505.817 198.818 501.719C201.221 497.622 178.274 485.121 178.274 485.121ZM133.519 391.162C133.519 391.162 122.986 394.32 115.359 398.209C107.156 402.394 105.817 403.82 105.817 403.82L106.723 375.548C106.723 375.548 126.397 371.986 131.196 370.062C135.996 368.138 133.519 391.162 133.519 391.162Z" fill="#FFB6A6"></path><path d="M261.547 162.69C260.576 168.933 257.744 174.11 254.186 179.019C253.206 180.374 252.169 181.706 251.101 183.034C237.155 180.143 224.276 173.953 220.842 172.222C220.263 171.929 219.951 171.765 219.951 171.765L220.034 171.324L222.872 156.118L226.024 139.261C226.024 139.261 248.458 149.716 261.125 154.084C261.575 156.907 261.967 159.756 261.547 162.69Z" fill="white"></path><path d="M254.186 179.025C253.206 180.38 252.169 181.711 251.101 183.039C237.155 180.149 224.276 173.959 220.842 172.228C220.558 171.914 220.286 171.612 220.034 171.33L222.872 156.124L225.912 149.775C225.912 149.775 235.131 151.478 239.622 166.736C241.632 173.558 247.887 177.147 254.186 179.025Z" fill="#FAFAFA"></path><path d="M265.359 348.741C263.563 353.457 259.623 357.783 254.175 361.735C249.699 364.985 244.205 367.978 238.049 370.734C230.672 374.031 222.227 377.039 213.366 379.748C206.353 381.893 199.083 383.853 191.874 385.624C159.189 393.652 127.789 397.807 127.789 397.807C127.789 397.807 116.791 380.024 124.999 368.407C139.454 363.475 161.288 354.887 180.541 345.929C186.153 343.319 191.545 340.676 196.469 338.086C211.764 330.037 222.575 322.476 221.501 317.835C218.909 306.57 182.152 235.923 182.152 235.923L233.64 241.197C233.64 241.197 278.128 315.164 265.359 348.741Z" fill="#433F34"></path><path d="M213.964 357.236C213.964 357.236 213.763 370.399 213.366 379.748C206.353 381.893 199.083 383.853 191.874 385.624C194.04 380.783 197.36 372.841 196.717 370.868C196 368.632 185.338 352.935 180.541 345.931C186.153 343.321 191.545 340.678 196.469 338.088C197.366 338.835 198.275 339.607 199.197 340.404C210.659 350.316 213.964 357.236 213.964 357.236Z" fill="#443F34"></path><path d="M254.175 361.735C249.699 364.983 244.205 367.978 238.049 370.732C233.241 349.545 223.981 301.379 223.981 301.379L214.919 273.97L217.708 270.731C217.708 270.731 231.184 278.703 237.921 297.891C244.657 317.079 250.932 343.987 253.255 355.449C253.673 357.526 253.98 359.625 254.175 361.735Z" fill="#38352C"></path><path d="M238.049 371.204C237.976 371.204 237.904 371.187 237.838 371.155C237.775 371.124 237.721 371.079 237.677 371.024C237.634 370.969 237.604 370.905 237.588 370.837C232.883 350.096 223.799 302.941 223.523 301.497L214.471 274.113C214.445 274.035 214.439 273.952 214.455 273.872C214.471 273.791 214.508 273.717 214.562 273.655L217.348 270.416C217.421 270.332 217.52 270.276 217.63 270.258C217.74 270.24 217.852 270.261 217.948 270.318C218.088 270.401 221.421 272.399 225.628 276.782C229.504 280.823 234.86 287.735 238.367 297.727C244.742 315.877 251.042 342.13 253.719 355.348C254.139 357.442 254.448 359.558 254.646 361.685C254.654 361.767 254.64 361.849 254.607 361.924C254.574 361.998 254.522 362.064 254.457 362.113C250.179 365.215 244.725 368.259 238.246 371.157C238.185 371.187 238.118 371.204 238.049 371.204ZM215.453 274.075L224.429 301.229C224.436 301.248 224.441 301.269 224.444 301.289C224.537 301.766 233.596 348.838 238.384 370.064C244.462 367.311 249.604 364.436 253.677 361.511C253.484 359.508 253.188 357.516 252.792 355.543C250.119 342.35 243.834 316.151 237.469 298.047C234.022 288.231 228.767 281.439 224.966 277.47C221.595 273.95 218.739 271.966 217.793 271.349L215.453 274.075Z" fill="#38352C"></path><path d="M200.394 506.287C200.394 506.287 187.112 499.005 180.272 492.969C178.174 491.117 176.678 489.374 176.365 488.009C175.022 482.169 201.427 371.411 201.427 371.411C201.427 371.411 162.836 302.552 157.917 281.128C152.999 259.704 161.623 237.24 161.623 237.24L191.079 232.34L206.817 229.724L219.728 270.612C219.728 270.612 249.337 325.851 250.917 373.108C252.497 420.366 200.394 506.287 200.394 506.287Z" fill="#443F34"></path><path d="M223.646 368.552C223.646 368.552 204.817 375.813 201.051 395.475C197.882 412.036 184.438 473.86 180.272 492.968C178.174 491.116 176.678 489.374 176.365 488.008C175.022 482.168 201.427 371.411 201.427 371.411C201.427 371.411 162.836 302.551 157.917 281.127C152.999 259.703 161.623 237.239 161.623 237.239L191.079 232.339C196.365 236.598 205.398 246.032 205.398 246.032C205.398 246.032 205.398 255.71 187.729 256.626C170.06 257.541 165.426 259.348 165.426 259.348C165.426 259.348 167.741 287.784 177.011 308.959C186.28 330.133 200.763 359.782 206.847 362.805C212.931 365.828 223.646 368.552 223.646 368.552Z" fill="#373329"></path><path d="M241.328 245.19C233.089 249.581 218.548 251.191 203.695 251.501C179.544 252.008 154.575 249.078 154.575 249.078C154.575 249.078 154.639 208.808 160.617 175.4C164.652 152.839 171.386 133.403 182.616 131.621C210.472 127.187 226.027 139.266 226.027 139.266C226.027 139.266 234.987 151.522 237.921 173.629C239.279 183.862 239.347 196.207 239.379 208.248C239.389 211.023 239.395 213.783 239.415 216.496C239.491 227.449 239.796 237.657 241.328 245.19Z" fill="white"></path><path d="M209.369 131.854C209.626 131.958 214.531 131.752 216.338 134.436C218.145 137.121 216.546 144.917 213.913 144.041C212.35 143.524 210.845 142.849 209.42 142.026L209.369 131.854Z" fill="#738942"></path><path d="M184.326 246.74C189.434 247.933 196.863 249.78 203.695 251.501C179.544 252.008 154.575 249.078 154.575 249.078C154.575 249.078 154.639 208.808 160.617 175.4L186.186 168.828C186.186 168.828 192.073 170.066 193.31 191.442C194.547 212.819 197.648 219.629 197.648 219.629C197.648 219.629 228.672 212.705 239.379 208.247C239.389 211.022 239.395 213.782 239.415 216.495C231.447 219.508 210.583 227.247 202.761 228.613C193 230.316 175.342 232.018 170.849 227.682C167.442 233.11 172.399 243.953 184.326 246.74Z" fill="#FAFAFA"></path><path d="M259.091 205.642C259.091 205.642 199.447 233.6 171.744 225.403C158.744 221.557 156.831 177.517 156.831 177.517L184.574 178.637L189.454 197.696L190.064 200.082C215.103 193.495 228.782 196.399 256.354 192.992C256.354 192.992 259.922 199.66 259.091 205.642Z" fill="#FFB6A6"></path><path d="M189.719 192.278C188.295 195.958 185.453 198.495 182.048 200.235C172.648 205.038 158.958 203.78 158.958 203.78C158.958 203.78 146.913 181.836 155.694 156.795C158.663 148.329 162.966 142.985 166.914 139.66C172.153 135.233 179.059 132.849 179.059 132.849L188.932 164.935C188.932 164.935 188.537 181.354 189.719 192.278Z" fill="white"></path><path d="M225.125 111.613C223.672 124.554 217.936 123.983 214.123 124.051C212.921 124.072 211.913 124.159 211.285 124.749C210.657 125.339 210.277 126.722 210.086 128.432C209.494 133.678 210.566 142.185 210.566 142.185C203.478 148.912 188.493 132.63 188.493 132.63C188.493 132.63 190.667 121.469 188.754 102.105C186.842 82.741 195.64 72.8131 209.269 73.3353C222.897 73.8574 227.038 94.5871 225.125 111.613Z" fill="#FFB6A6"></path><path d="M118.959 396.32C118.959 396.32 113.552 425.384 107.765 433.475C105.631 432.821 103.883 431.962 103.161 430.844C100.605 426.894 98.5127 401.802 98.053 392.739C97.7636 387.099 98.106 378.846 98.4049 373.42C106.265 370.743 114.318 373.564 114.318 373.564C114.318 373.564 111.789 379.222 112.616 389.833C113.229 397.807 118.959 396.32 118.959 396.32ZM220.502 541.072C220.469 541.405 220.43 541.719 220.386 542.018C213.319 541.072 202.28 537.856 191.142 533.149C180.703 528.741 169.742 519.731 164.896 515.484C168.727 508.341 173.832 502.231 173.832 502.231C173.832 502.231 177.954 509.682 187.394 513.725C196.834 517.767 196.41 513.725 196.41 513.725C196.41 513.725 221.236 533.751 220.502 541.072Z" fill="#433F34"></path><path d="M424.728 10.6732V65.9006H279.931V10.6732C279.931 9.27141 280.207 7.88336 280.743 6.58831C281.28 5.29325 282.066 4.11656 283.057 3.12543C284.049 2.13431 285.226 1.34817 286.521 0.811904C287.816 0.275637 289.204 -0.000248287 290.606 1.67664e-07H414.055C416.886 1.67664e-07 419.6 1.12449 421.602 3.1261C423.604 5.12772 424.728 7.84248 424.728 10.6732Z" fill="#738942"></path><path d="M424.728 65.9006V82.145C424.728 84.9757 423.604 87.6905 421.602 89.6921C419.6 91.6937 416.886 92.8182 414.055 92.8182H290.606C289.204 92.8185 287.816 92.5426 286.521 92.0063C285.226 91.47 284.049 90.6839 283.057 89.6928C282.066 88.7016 281.28 87.525 280.743 86.2299C280.207 84.9348 279.931 83.5468 279.931 82.145V65.9006H424.728Z" fill="white"></path><path d="M414.055 93.575H290.606C287.575 93.572 284.669 92.3669 282.526 90.2241C280.383 88.0812 279.177 85.1758 279.174 82.1451V65.9007C279.174 65.7001 279.254 65.5076 279.396 65.3657C279.538 65.2238 279.73 65.144 279.931 65.144H424.728C424.929 65.144 425.121 65.2238 425.263 65.3657C425.405 65.5076 425.485 65.7001 425.485 65.9007V82.1451C425.481 85.1754 424.276 88.0806 422.133 90.2234C419.991 92.3662 417.085 93.5715 414.055 93.575ZM280.687 66.6574V82.1451C280.69 84.7745 281.736 87.2954 283.596 89.1545C285.455 91.0136 287.976 92.0591 290.606 92.0616H414.055C416.684 92.0586 419.205 91.0129 421.064 89.1538C422.923 87.2948 423.968 84.7742 423.971 82.1451V66.6574H280.687Z" fill="#DBDBDD"></path><path d="M279.931 65.9006H424.728V71.0046H279.931V65.9006Z" fill="#443F34"></path><path d="M310.407 76.033C314.593 76.033 317.987 72.6392 317.987 68.4527C317.987 64.2663 314.593 60.8726 310.407 60.8726C306.22 60.8726 302.826 64.2663 302.826 68.4527C302.826 72.6392 306.22 76.033 310.407 76.033Z" fill="#F2D44D"></path><path d="M352.329 58.6214C364.988 58.6214 375.25 48.3596 375.25 35.7011C375.25 23.0425 364.988 12.7808 352.329 12.7808C339.671 12.7808 329.409 23.0425 329.409 35.7011C329.409 48.3596 339.671 58.6214 352.329 58.6214Z" fill="white"></path><path d="M365.481 33.8853L345.744 22.4895C345.409 22.2972 345.028 22.1966 344.642 22.1975C344.255 22.1985 343.875 22.301 343.541 22.4949C343.206 22.6887 342.928 22.9671 342.735 23.3022C342.542 23.6372 342.44 24.0171 342.439 24.4039V47.1899C342.44 47.5769 342.542 47.957 342.736 48.292C342.93 48.6271 343.208 48.9053 343.543 49.0988C343.878 49.2924 344.258 49.3944 344.645 49.3947C345.032 49.395 345.413 49.2936 345.748 49.1006L365.481 37.7047C365.816 37.5111 366.094 37.2327 366.288 36.8974C366.481 36.5622 366.583 36.182 366.583 35.795C366.583 35.408 366.481 35.0278 366.288 34.6926C366.094 34.3574 365.816 34.079 365.481 33.8853Z" fill="#F2D44D"></path><path d="M215.383 73.4879C215.383 73.4879 219.102 81.3878 214.221 89.0551C209.34 96.7223 200.281 97.1895 200.281 97.1895C200.281 97.1895 197.958 104.626 195.635 106.949C193.312 109.272 187.037 111.828 187.037 111.828C187.037 111.828 181.929 83.2493 191.452 75.5821C200.975 67.9149 215.383 73.4879 215.383 73.4879Z" fill="#433F34"></path><path d="M210.659 74.7012C210.659 74.7012 213.55 90.9134 222.009 95.3552C230.469 99.797 227.584 83.6851 225.415 78.9349C223.245 74.1847 211.382 69.7448 210.659 74.7012Z" fill="#433F34"></path><path d="M188.509 80.2248C192.529 80.2248 195.788 76.9657 195.788 72.9454C195.788 68.9251 192.529 65.666 188.509 65.666C184.488 65.666 181.229 68.9251 181.229 72.9454C181.229 76.9657 184.488 80.2248 188.509 80.2248Z" fill="#433F34"></path><path d="M186.186 96.0241C186.186 96.0241 174.835 98.245 179.68 107.023C169.249 109.501 171.108 120.861 181.848 119.724C189.129 125.611 191.56 121.033 192.381 120.24C198.421 113.125 194.396 94.1664 186.186 96.0241Z" fill="#433F34"></path><path d="M284.39 105.784C284.39 105.784 284.7 81.3108 289.966 74.1922C295.233 67.0736 301.128 64.5878 303.184 65.1118C305.24 65.6358 299.881 71.1011 299.467 74.3038C299.052 77.5065 297.401 83.0815 300.189 81.7383C302.978 80.3952 304.527 73.8895 307 73.9935C309.472 74.0976 309.994 76.6779 307.516 81.6343C305.038 86.5906 298.842 100.223 298.326 103.321C286.87 105.37 284.39 105.784 284.39 105.784Z" fill="#FFB6A6"></path><path d="M220.384 542.015C219.493 548.269 213.672 547.011 203.3 543.059C192.436 538.92 161.012 524.008 163.713 517.803C164.06 517.008 164.483 516.246 164.894 515.481C169.741 519.728 180.701 528.739 191.14 533.147C202.28 537.848 213.319 541.069 220.384 542.015ZM107.765 433.467C107.096 434.4 106.424 435.054 105.754 435.359C99.2752 438.257 98.999 435.071 97.1678 423.144C95.3366 411.216 91.2334 376.219 97.5461 373.73C97.828 373.62 98.1137 373.516 98.3974 373.417C98.0985 378.843 97.7561 387.097 98.0456 392.736C98.5109 401.799 100.603 426.891 103.153 430.841C103.883 431.955 105.631 432.812 107.765 433.467Z" fill="#738942"></path><path d="M182.048 200.235C172.648 205.038 158.958 203.78 158.958 203.78C158.958 203.78 146.913 181.836 155.694 156.795C158.663 148.329 162.966 142.985 166.914 139.659C163.723 145.567 159.491 155.172 158.922 165.419C157.995 182.148 161.557 198.103 164.19 199.497C166.091 200.502 176.413 200.38 182.048 200.235Z" fill="#FAFAFA"></path><path d="M214.123 124.041C212.921 124.061 211.913 124.149 211.285 124.739C210.657 125.329 210.277 126.712 210.086 128.422C207.265 126.029 204.021 122.111 203.762 116.627C203.765 116.627 205.852 122.291 214.123 124.041Z" fill="#FF8370"></path><path d="M188.981 129.174L180.72 131.601C180.341 134.687 181.072 137.807 182.784 140.403C185.65 144.663 189.137 147.452 191.297 148.537C193.457 149.623 199.893 152.487 202.681 151.714C205.47 150.94 205.005 143.814 205.005 143.814C205.005 143.814 190.909 136.531 188.981 129.174Z" fill="#738942"></path><path d="M213.705 157.83C214.702 157.83 215.511 157.021 215.511 156.023C215.511 155.025 214.702 154.216 213.705 154.216C212.707 154.216 211.898 155.025 211.898 156.023C211.898 157.021 212.707 157.83 213.705 157.83Z" fill="#738942"></path><path d="M217.114 167.33C218.111 167.33 218.92 166.521 218.92 165.523C218.92 164.526 218.111 163.717 217.114 163.717C216.116 163.717 215.307 164.526 215.307 165.523C215.307 166.521 216.116 167.33 217.114 167.33Z" fill="#738942"></path><path d="M218.353 176.108C219.35 176.108 220.159 175.299 220.159 174.301C220.159 173.303 219.35 172.495 218.353 172.495C217.355 172.495 216.546 173.303 216.546 174.301C216.546 175.299 217.355 176.108 218.353 176.108Z" fill="#738942"></path><path d="M268.107 164.897L265.584 165.904C265.094 166.099 264.648 166.388 264.271 166.756C263.893 167.123 263.592 167.561 263.384 168.045C263.176 168.529 263.066 169.05 263.059 169.576C263.052 170.103 263.149 170.626 263.344 171.115L263.641 171.861L273.616 167.888L273.319 167.143C273.125 166.653 272.835 166.206 272.468 165.828C272.101 165.45 271.663 165.148 271.179 164.94C270.695 164.731 270.174 164.62 269.647 164.613C269.12 164.605 268.597 164.702 268.107 164.897Z" fill="#738942"></path><path d="M258.359 191.243C258.359 191.243 263.041 187.346 265.737 185.169C268.279 183.116 271.183 183.258 271.493 183.154C271.804 183.05 273.752 188.451 273.752 188.451C273.752 188.451 272.05 188.968 269.57 189.639C267.09 190.311 258.359 191.243 258.359 191.243Z" fill="#FFB6A6"></path><path d="M263.643 171.825L273.618 167.845L290.543 210.268L280.568 214.248L263.643 171.825Z" fill="#433F34"></path><path d="M286.892 221.663L288.436 223.861C290.428 226.699 292.533 225.702 291.896 222.219L291.461 219.841L286.892 221.663Z" fill="#433F34"></path><path d="M291.591 212.944L290.54 210.307L280.564 214.285L281.616 216.922L286.892 221.663L291.461 219.841L291.591 212.944Z" fill="#738942"></path><path d="M255.58 193.147C262.239 186.951 274.365 192.127 279.331 186.435C280.723 184.838 279.617 183.936 279.914 183.423C280.926 181.669 281.917 183.4 282.814 184.704C284.649 187.371 285.509 193.406 283.712 196.907C277.161 209.68 258.575 205.744 258.575 205.744L255.58 193.147Z" fill="#FFB6A6"></path><path d="M526.498 439.744H463.35L477.585 407.99H518.373C521.267 416.096 524.652 427.355 526.498 439.744Z" fill="#ECEDF2"></path><path d="M505.738 532.064H483.077C468.102 503.204 462.66 472.438 463.002 440.519L463.35 439.745H526.498C526.877 442.284 527.194 444.87 527.427 447.488C529.903 475.37 505.738 532.064 505.738 532.064Z" fill="#E1E2E5"></path><path d="M536.992 439.744H526.498C524.652 427.355 521.267 416.097 518.373 407.99H522.756L536.992 439.744Z" fill="#DBDBDD"></path><path d="M517.263 532.064H505.738C505.738 532.064 529.903 475.37 527.427 447.488C527.194 444.87 526.878 442.284 526.498 439.745H536.992L537.338 440.519C537.682 472.438 532.24 503.204 517.263 532.064Z" fill="#C3C4CB"></path><path d="M190.064 200.082C190.064 200.082 185.41 203.446 184.636 204.609C185.357 202.086 187.852 199.288 189.454 197.697L190.064 200.082Z" fill="#FF8370"></path><path d="M415.691 204.748H411.431C411.364 204.749 411.298 204.732 411.24 204.698C411.182 204.665 411.134 204.617 411.1 204.559C411.07 204.506 408.047 199.101 404.401 198.884L400.393 198.646L396.503 198.884C392.854 199.107 389.837 204.51 389.807 204.559C389.773 204.617 389.725 204.665 389.667 204.698C389.609 204.732 389.543 204.749 389.476 204.748H385.214C385.113 204.748 385.017 204.708 384.946 204.637C384.875 204.567 384.835 204.47 384.835 204.37C384.835 204.27 384.875 204.173 384.946 204.102C385.017 204.031 385.113 203.992 385.214 203.992H389.256C389.862 202.959 392.773 198.341 396.458 198.116L400.357 197.879H400.546L404.447 198.116C408.13 198.341 411.041 202.959 411.649 203.992H415.689C415.79 203.992 415.886 204.031 415.957 204.102C416.028 204.173 416.068 204.27 416.068 204.37C416.068 204.47 416.028 204.567 415.957 204.637C415.886 204.708 415.79 204.748 415.689 204.748H415.691Z" fill="#38352C"></path><path d="M85.4727 167.532L7.05712 190.106C3.15957 191.228 0.909581 195.298 2.0316 199.195L15.406 245.654C16.5281 249.551 20.5972 251.801 24.4947 250.679L102.91 228.105C106.808 226.983 109.058 222.914 107.936 219.016L94.5614 172.558C93.4394 168.66 89.3702 166.41 85.4727 167.532Z" fill="#B3B3BD"></path><path d="M86.9101 165.758L8.49452 188.333C4.59697 189.455 2.34696 193.524 3.46898 197.421L16.8434 243.88C17.9654 247.777 22.0346 250.027 25.9321 248.905L104.348 226.331C108.245 225.209 110.495 221.14 109.373 217.243L95.9988 170.784C94.8768 166.886 90.8076 164.636 86.9101 165.758Z" fill="#DBDBDD"></path><path d="M91.6307 172.054C91.5299 171.699 91.36 171.368 91.1308 171.08C90.9016 170.791 90.6176 170.551 90.2951 170.373C89.9727 170.194 89.6181 170.082 89.2519 170.041C88.8857 170 88.515 170.032 88.1613 170.135L9.74488 192.708C9.03048 192.913 8.42705 193.394 8.06733 194.045C7.7076 194.696 7.62103 195.463 7.82666 196.177L8.56255 198.737L92.5898 175.383L91.6307 172.054Z" fill="#433F34"></path><path d="M103.097 221.984L24.6782 244.557C24.3245 244.659 23.9541 244.69 23.5882 244.649C23.2223 244.608 22.8681 244.495 22.5459 244.317C22.2237 244.139 21.9397 243.899 21.7103 243.611C21.4809 243.323 21.3105 242.992 21.2088 242.638L16.9921 227.989L8.57385 198.737L92.5993 175.383L94.2261 181.034L105.009 218.515C105.214 219.229 105.128 219.994 104.769 220.645C104.411 221.295 103.809 221.777 103.097 221.984Z" fill="white"></path><path d="M142.454 260.027L61.7147 291.105C56.9684 293.046 51.2194 292.722 49.0268 290.348L24.7274 262.963C24.1599 262.35 23.984 261.673 24.1429 260.986C24.1959 260.759 23.967 257.339 24.0899 257.112C24.8466 255.752 27.1564 257.63 29.9846 256.817L108.846 234.116C111.642 233.31 115.334 233.785 117.158 235.17L142.208 253.153C142.868 253.656 144.609 252.532 144.753 253.104C144.785 253.226 144.826 257.11 144.834 257.233C144.904 258.313 144.083 259.358 142.454 260.027Z" fill="#B3B3BD"></path><path d="M142.454 255.574L61.7147 286.651C56.9683 288.592 51.2194 288.267 49.0268 285.895L24.7274 258.512C22.847 256.482 25.2609 253.724 29.9846 252.363L108.846 229.663C111.642 228.859 115.334 229.332 117.158 230.718L143.574 250.771C145.613 252.333 145.144 254.477 142.454 255.574Z" fill="white"></path><path d="M55.3224 288.68C52.4224 288.68 49.8364 287.91 48.4725 286.429L24.1617 259.033C23.807 258.674 23.5533 258.228 23.4264 257.74C23.2995 257.252 23.3039 256.739 23.4391 256.254C23.965 254.362 26.3334 252.648 29.7764 251.657L108.635 228.956C111.662 228.086 115.601 228.604 117.616 230.136L144.03 250.189C145.165 251.055 145.719 252.15 145.57 253.272C145.403 254.538 144.399 255.607 142.732 256.286H142.719L61.987 287.356C59.8707 288.219 57.6082 288.669 55.3224 288.68ZM111.829 230.036C110.892 230.03 109.958 230.153 109.055 230.403L30.1945 253.104C26.7364 254.099 25.1795 255.637 24.8976 256.653C24.7614 257.139 24.8881 257.583 25.2759 258.009L49.5848 285.405C51.5446 287.518 56.9626 287.776 61.4214 285.956L142.167 254.874C143.281 254.417 143.971 253.758 144.058 253.066C144.132 252.498 143.793 251.91 143.103 251.386L116.689 231.334C115.605 230.501 113.722 230.036 111.829 230.036Z" fill="#DBDBDD"></path><path d="M35.2152 255.302L108.845 234.127L123.862 246.085L50.4551 270.81L35.2152 255.302ZM110.531 264.14L88.8744 272.059L82.0017 264.505L103.658 256.584L110.531 264.14Z" fill="#433F34"></path><path d="M114.296 236.481C114.269 236.384 114.223 236.293 114.16 236.214C114.098 236.136 114.02 236.07 113.932 236.021C113.844 235.973 113.747 235.942 113.647 235.931C113.547 235.921 113.446 235.93 113.35 235.959L37.3018 259.083C37.1062 259.144 36.9425 259.28 36.8462 259.461C36.7499 259.642 36.7287 259.854 36.7873 260.05C36.8142 260.147 36.8602 260.238 36.9226 260.316C36.985 260.395 37.0625 260.461 37.1506 260.51C37.2386 260.558 37.3355 260.589 37.4356 260.6C37.5356 260.61 37.6367 260.601 37.7331 260.572L113.781 237.448C113.977 237.387 114.141 237.251 114.237 237.07C114.334 236.889 114.355 236.677 114.296 236.481ZM118.119 239.805C118.092 239.708 118.046 239.617 117.983 239.538C117.921 239.459 117.844 239.394 117.756 239.345C117.667 239.296 117.571 239.266 117.471 239.255C117.37 239.244 117.269 239.254 117.173 239.283L41.125 262.407C40.9291 262.468 40.7651 262.603 40.6687 262.785C40.5723 262.966 40.5514 263.177 40.6105 263.374C40.6376 263.471 40.6838 263.561 40.7463 263.64C40.8087 263.718 40.8863 263.784 40.9743 263.832C41.0624 263.881 41.1592 263.911 41.2591 263.922C41.359 263.932 41.4601 263.923 41.5563 263.894L117.604 240.771C117.8 240.711 117.964 240.575 118.061 240.394C118.157 240.213 118.178 240.001 118.119 239.805ZM121.942 243.127C121.915 243.03 121.869 242.939 121.806 242.861C121.744 242.782 121.666 242.717 121.578 242.668C121.49 242.62 121.393 242.589 121.293 242.579C121.193 242.568 121.092 242.577 120.996 242.606L44.9482 265.729C44.7525 265.791 44.5889 265.927 44.4929 266.108C44.397 266.289 44.3763 266.501 44.4356 266.698C44.4627 266.794 44.5089 266.885 44.5714 266.963C44.6338 267.042 44.7114 267.108 44.7994 267.156C44.8875 267.204 44.9843 267.235 45.0842 267.246C45.1841 267.256 45.2852 267.247 45.3814 267.218L121.429 244.095C121.625 244.033 121.788 243.897 121.884 243.716C121.98 243.535 122.001 243.323 121.942 243.127Z" fill="white"></path><path d="M44.2634 251.333C44.1232 251.189 43.9316 251.107 43.7308 251.104C43.53 251.102 43.3364 251.179 43.1927 251.32C43.0489 251.46 42.9668 251.651 42.9643 251.852C42.9618 252.053 43.0392 252.247 43.1794 252.39L59.9705 269.584C60.0393 269.658 60.1221 269.717 60.2142 269.758C60.3062 269.8 60.4055 269.822 60.5063 269.824C60.6071 269.827 60.7073 269.809 60.8011 269.772C60.8949 269.735 60.9804 269.68 61.0525 269.609C61.1246 269.539 61.1819 269.454 61.2211 269.362C61.2602 269.269 61.2803 269.169 61.2803 269.068C61.2803 268.967 61.2602 268.867 61.2211 268.774C61.182 268.681 61.1247 268.597 61.0526 268.527L44.2634 251.333ZM52.4584 248.894C52.3159 248.753 52.1231 248.674 51.9223 248.674C51.7215 248.675 51.5292 248.756 51.3877 248.898C51.2462 249.041 51.1671 249.233 51.1678 249.434C51.1685 249.635 51.249 249.827 51.3915 249.969L68.506 266.942C68.6485 267.083 68.8414 267.162 69.0422 267.161C69.243 267.161 69.4353 267.08 69.5768 266.938C69.7183 266.795 69.7973 266.602 69.7966 266.402C69.7959 266.201 69.7155 266.009 69.573 265.867L52.4584 248.894ZM60.6629 246.456C60.5925 246.382 60.5078 246.323 60.4139 246.282C60.32 246.242 60.2188 246.221 60.1166 246.22C60.0143 246.22 59.9131 246.24 59.819 246.28C59.7248 246.32 59.6397 246.379 59.5688 246.452C59.498 246.526 59.4427 246.613 59.4065 246.709C59.3703 246.805 59.3539 246.907 59.3582 247.009C59.3625 247.111 59.3875 247.211 59.4316 247.303C59.4757 247.396 59.538 247.478 59.6149 247.546L77.0529 264.297C77.1983 264.432 77.3911 264.505 77.5897 264.499C77.7883 264.494 77.9767 264.41 78.1143 264.267C78.2518 264.124 78.3276 263.932 78.3251 263.733C78.3226 263.535 78.2421 263.345 78.1009 263.205L60.6629 246.456ZM68.8674 244.016C68.7204 243.879 68.5251 243.806 68.3244 243.813C68.1238 243.821 67.9343 243.907 67.7976 244.054C67.6609 244.201 67.5881 244.397 67.5954 244.597C67.6027 244.798 67.6894 244.987 67.8364 245.124L85.5998 261.654C85.7468 261.791 85.9421 261.864 86.1427 261.856C86.3433 261.849 86.5329 261.762 86.6696 261.615C86.8063 261.468 86.879 261.273 86.8717 261.072C86.8645 260.872 86.7778 260.682 86.6308 260.546L68.8674 244.016ZM77.0718 241.575C76.9989 241.504 76.9123 241.449 76.8173 241.412C76.7224 241.375 76.621 241.358 76.5192 241.361C76.4175 241.365 76.3175 241.389 76.2252 241.432C76.1328 241.474 76.0501 241.536 75.982 241.611C75.9139 241.687 75.8617 241.776 75.8286 241.872C75.7955 241.968 75.7822 242.07 75.7895 242.172C75.7967 242.273 75.8244 242.372 75.8709 242.463C75.9173 242.553 75.9815 242.634 76.0597 242.699L94.1448 259.008C94.2186 259.074 94.3048 259.126 94.3984 259.159C94.492 259.192 94.5913 259.207 94.6906 259.202C94.7898 259.196 94.8871 259.172 94.9768 259.129C95.0666 259.086 95.147 259.027 95.2136 258.953C95.2802 258.879 95.3316 258.793 95.3649 258.699C95.3981 258.605 95.4126 258.506 95.4075 258.407C95.4024 258.308 95.3779 258.21 95.3352 258.121C95.2925 258.031 95.2325 257.95 95.1588 257.884L77.0718 241.575ZM85.2763 239.139C85.1238 239.023 84.9332 238.97 84.743 238.989C84.5527 239.009 84.3769 239.099 84.2508 239.243C84.1247 239.387 84.0578 239.573 84.0634 239.764C84.0691 239.956 84.1469 240.138 84.2813 240.274L102.692 256.353C102.765 256.426 102.852 256.483 102.948 256.52C103.045 256.558 103.147 256.576 103.25 256.572C103.353 256.568 103.455 256.544 103.548 256.5C103.641 256.455 103.724 256.393 103.793 256.315C103.861 256.238 103.912 256.147 103.944 256.049C103.976 255.951 103.987 255.847 103.977 255.744C103.968 255.642 103.937 255.542 103.887 255.452C103.838 255.361 103.77 255.282 103.689 255.218L85.2763 239.139ZM93.4808 236.7C93.3275 236.57 93.129 236.507 92.9289 236.524C92.7288 236.54 92.5435 236.636 92.4138 236.789C92.2842 236.942 92.2207 237.141 92.2373 237.341C92.254 237.541 92.3495 237.726 92.5028 237.856L111.231 253.72C111.306 253.788 111.394 253.84 111.49 253.873C111.586 253.906 111.687 253.92 111.788 253.913C111.889 253.907 111.988 253.88 112.079 253.834C112.169 253.788 112.25 253.725 112.315 253.648C112.381 253.57 112.43 253.481 112.46 253.384C112.49 253.287 112.501 253.185 112.491 253.084C112.481 252.984 112.451 252.886 112.403 252.797C112.354 252.708 112.288 252.629 112.209 252.566L93.4808 236.7ZM120.746 249.899L101.685 234.256C101.609 234.188 101.52 234.137 101.423 234.104C101.327 234.072 101.225 234.059 101.123 234.067C101.021 234.075 100.923 234.103 100.832 234.151C100.742 234.198 100.662 234.263 100.597 234.341C100.533 234.42 100.485 234.511 100.456 234.609C100.427 234.707 100.419 234.81 100.431 234.911C100.443 235.012 100.475 235.11 100.526 235.198C100.577 235.286 100.645 235.364 100.726 235.425L119.785 251.068C119.941 251.194 120.139 251.254 120.339 251.234C120.538 251.214 120.721 251.116 120.848 250.962C120.975 250.807 121.036 250.609 121.017 250.409C120.998 250.21 120.9 250.027 120.746 249.899Z" fill="white"></path><path d="M94.2167 181.04C89.3757 179.526 86.2714 186.526 80.3937 191.79C74.0545 197.454 71.2226 196.24 63.4021 196.645C55.5817 197.049 57.3334 205.68 50.3207 213.502C43.3081 221.324 32.249 216.34 27.809 216.739C24.3812 217.051 19.1959 224.557 16.9921 227.995L20.2932 239.464L103.73 214.06L94.2167 181.04Z" fill="#738942"></path><path d="M103.721 214.054L20.2838 239.458L21.1994 242.638C21.3011 242.992 21.4715 243.322 21.7009 243.61C21.9304 243.898 22.2143 244.138 22.5365 244.316C22.8588 244.494 23.2129 244.607 23.5788 244.648C23.9447 244.69 24.3151 244.658 24.6689 244.556L103.097 221.984C103.81 221.777 104.413 221.296 104.773 220.646C105.132 219.995 105.219 219.229 105.015 218.514L103.721 214.054Z" fill="#433F34"></path><path d="M291.593 226.534L291.101 225.104C291.578 224.939 292.047 224.775 292.535 224.612L293.023 226.044L291.593 226.534ZM328.327 299.351L328.278 297.838C329.241 297.807 330.226 297.735 331.206 297.628L331.373 299.132C330.355 299.243 329.33 299.319 328.327 299.351ZM325.268 299.323C324.237 299.27 323.212 299.169 322.219 299.026L322.434 297.527C323.38 297.665 324.362 297.76 325.348 297.811L325.268 299.323ZM334.392 298.681L334.114 297.193C335.06 297.015 336.034 296.799 336.986 296.551L337.364 298.015C336.382 298.273 335.381 298.496 334.392 298.681ZM319.205 298.439C318.209 298.193 317.227 297.893 316.263 297.543L316.784 296.12C317.696 296.454 318.626 296.738 319.57 296.969L319.205 298.439ZM340.289 297.143L339.806 295.709C340.72 295.403 341.652 295.059 342.576 294.69L343.143 296.093C342.188 296.476 341.229 296.827 340.289 297.143ZM313.435 296.32C312.715 295.957 312.005 295.564 311.328 295.132C311.139 295.013 310.95 294.89 310.76 294.765L311.606 293.511C311.778 293.627 311.954 293.74 312.13 293.852C312.766 294.251 313.433 294.627 314.111 294.968L313.435 296.32ZM345.926 294.894L345.292 293.519C346.162 293.118 347.057 292.681 347.952 292.217L348.646 293.562C347.731 294.035 346.815 294.484 345.926 294.894ZM308.324 292.851C307.559 292.157 306.841 291.412 306.175 290.623L307.333 289.646C307.954 290.385 308.624 291.08 309.34 291.727L308.324 292.851ZM351.306 292.123L350.561 290.798C351.389 290.329 352.252 289.822 353.122 289.285L353.909 290.577C353.026 291.139 352.148 291.646 351.306 292.123ZM356.465 288.992L355.644 287.719C356.446 287.202 357.259 286.667 358.133 286.079L358.977 287.335C358.103 287.923 357.273 288.47 356.465 288.992ZM304.342 288.131C303.786 287.261 303.287 286.355 302.849 285.42L304.221 284.779C304.63 285.654 305.097 286.501 305.617 287.316L304.342 288.131ZM361.461 285.64L360.598 284.395C361.419 283.827 362.239 283.256 363.058 282.681L363.928 283.92C363.104 284.495 362.282 285.068 361.461 285.64ZM301.729 282.533C301.42 281.543 301.185 280.532 301.025 279.507L302.52 279.272C302.669 280.223 302.888 281.161 303.174 282.079L301.729 282.533ZM366.37 282.193L365.496 280.956L367.94 279.221L368.812 280.456L366.37 282.193ZM371.264 278.737L370.392 277.5L372.838 275.772L373.712 277.008L371.264 278.737ZM302.297 276.416H300.783C300.788 275.372 300.884 274.331 301.069 273.304L302.558 273.576C302.388 274.513 302.3 275.463 302.297 276.416ZM376.152 275.281L375.28 274.043L377.728 272.316L378.6 273.551L376.152 275.281ZM381.048 271.824L380.174 270.587L382.622 268.86L383.496 270.095L381.048 271.824ZM303.33 270.825L301.918 270.279C302.094 269.825 302.297 269.373 302.509 268.936C302.755 268.438 303.024 267.952 303.314 267.479L304.603 268.272C304.336 268.707 304.086 269.157 303.865 269.607C303.678 270.003 303.496 270.411 303.337 270.825H303.33ZM385.942 268.366L385.07 267.129L387.518 265.402L388.39 266.637L385.942 268.366ZM306.3 265.949L305.148 264.967C305.819 264.185 306.539 263.446 307.302 262.753L308.322 263.871C307.607 264.522 306.935 265.216 306.307 265.95L306.3 265.949ZM390.838 264.91L389.964 263.673L391.271 262.751L392.406 261.946L393.276 263.185L392.141 263.987L390.838 264.91ZM310.584 262.006L309.675 260.797C310.431 260.23 311.247 259.653 312.164 259.047L312.998 260.311C312.107 260.905 311.318 261.459 310.584 262.006ZM395.745 261.482L394.896 260.23C395.804 259.613 396.628 259.07 397.417 258.569L398.227 259.848C397.451 260.345 396.64 260.871 395.749 261.488L395.745 261.482ZM315.509 258.726L314.722 257.434C315.575 256.915 316.443 256.401 317.281 255.903L317.302 255.892L318.072 257.194L318.053 257.205C317.217 257.706 316.354 258.223 315.509 258.732V258.726ZM400.762 258.317L400.005 256.993C400.921 256.469 401.825 255.989 402.691 255.565L403.357 256.923C402.527 257.349 401.651 257.814 400.762 258.323V258.317ZM425.4 256.965C424.628 256.411 423.804 255.934 422.941 255.538L423.572 254.163C424.526 254.599 425.435 255.126 426.287 255.737L425.4 256.965ZM406.047 255.745L405.493 254.335C406.467 253.957 407.443 253.618 408.397 253.346L408.813 254.801C407.907 255.067 406.976 255.385 406.047 255.75V255.745ZM320.654 255.646L319.86 254.36C320.734 253.819 321.562 253.274 322.334 252.742L323.197 253.985C322.408 254.538 321.553 255.098 320.647 255.652L320.654 255.646ZM420.241 254.57C419.31 254.32 418.361 254.141 417.403 254.032L417.576 252.519C418.605 252.637 419.625 252.831 420.627 253.098L420.241 254.57ZM411.643 254.163L411.407 252.669C412.426 252.507 413.456 252.414 414.488 252.39L414.524 253.904C413.558 253.927 412.594 254.016 411.639 254.169L411.643 254.163ZM325.643 252.169L324.697 250.991C325.489 250.353 326.227 249.702 326.891 249.057L327.947 250.143C327.245 250.818 326.471 251.501 325.643 252.169ZM330.028 247.869L328.847 246.923C329.451 246.178 329.996 245.386 330.476 244.555L331.789 245.312C331.269 246.208 330.68 247.062 330.028 247.867V247.869ZM333.083 242.447L331.649 241.963C331.947 241.084 332.148 240.175 332.251 239.252V239.209L333.764 239.364V239.421C333.646 240.451 333.418 241.465 333.083 242.446V242.447ZM332.224 236.394C332.099 235.459 331.87 234.541 331.543 233.657L332.964 233.134C333.329 234.124 333.583 235.151 333.72 236.197L332.224 236.394ZM330.296 231.097C329.795 230.284 329.225 229.515 328.594 228.799L329.729 227.798C330.42 228.579 331.042 229.417 331.59 230.304L330.296 231.097ZM326.524 226.793C325.784 226.172 325.002 225.603 324.182 225.091L324.982 223.806C325.862 224.352 326.701 224.959 327.495 225.622L326.524 226.793ZM295.855 225.091L295.386 223.653C296.423 223.314 297.365 223.021 298.264 222.753L298.695 224.204C297.808 224.474 296.879 224.763 295.865 225.096L295.855 225.091ZM321.63 223.748C320.75 223.354 319.844 223.024 318.918 222.758L319.334 221.302C320.329 221.588 321.302 221.944 322.247 222.367L321.63 223.748ZM301.555 223.415L301.177 221.949C302.193 221.688 303.188 221.459 304.134 221.266L304.434 222.749C303.517 222.936 302.546 223.161 301.555 223.415ZM307.342 222.251L307.136 220.751C308.171 220.609 309.192 220.507 310.174 220.45L310.263 221.964C309.321 222.017 308.337 222.113 307.342 222.251ZM316.091 222.174C315.128 222.039 314.159 221.955 313.188 221.922L313.239 220.409C314.263 220.443 315.286 220.532 316.301 220.674L316.091 222.174ZM428.406 259.995C428.133 259.606 427.838 259.233 427.522 258.877L428.657 257.871C429.012 258.269 429.344 258.688 429.651 259.125L428.406 259.995Z" fill="#443F34"></path><path d="M37.1033 457.99C37.1033 465.429 34.1482 472.564 28.8881 477.824C23.628 483.085 16.4936 486.04 9.05444 486.041C12.738 486.041 16.3855 486.767 19.7887 488.176C23.1919 489.586 26.284 491.652 28.8886 494.257C31.4932 496.862 33.5592 499.954 34.9687 503.357C36.3782 506.761 37.1035 510.408 37.1033 514.092C37.1033 510.408 37.8288 506.76 39.2385 503.357C40.6482 499.954 42.7144 496.862 45.3191 494.257C47.9239 491.652 51.0162 489.586 54.4194 488.176C57.8227 486.767 61.4703 486.041 65.154 486.041C57.7145 486.041 50.5797 483.086 45.3191 477.825C40.0586 472.565 37.1033 465.43 37.1033 457.99Z" fill="#ECEDF2"></path><path d="M61.2589 331.308C61.2589 343.561 52.4755 353.493 41.6434 353.493C52.4755 353.493 61.2589 363.426 61.2589 375.679C61.2589 363.426 70.0403 353.493 80.8743 353.493C70.0403 353.493 61.2589 343.561 61.2589 331.308Z" fill="#ECEDF2"></path><path d="M509.643 243.299C509.643 250.738 506.688 257.873 501.428 263.133C496.167 268.393 489.033 271.349 481.594 271.35C485.278 271.35 488.925 272.075 492.328 273.485C495.731 274.895 498.824 276.961 501.428 279.566C504.033 282.17 506.099 285.263 507.508 288.666C508.918 292.069 509.643 295.717 509.643 299.4C509.643 295.717 510.368 292.069 511.777 288.666C513.187 285.263 515.253 282.17 517.857 279.566C520.462 276.961 523.554 274.895 526.957 273.485C530.361 272.075 534.008 271.35 537.692 271.35C530.252 271.349 523.118 268.393 517.858 263.133C512.598 257.873 509.643 250.738 509.643 243.299Z" fill="#ECEDF2"></path><path d="M138.101 318.894L114.426 335.804L90.751 318.894L114.426 301.983L138.101 318.894Z" fill="#433F34"></path><path d="M94.7804 293.23H134.072V345.75H94.7804V293.23Z" fill="white"></path><path d="M134.072 346.129H94.7729C94.6725 346.129 94.5763 346.089 94.5054 346.018C94.4344 345.947 94.3945 345.851 94.3945 345.751V293.23C94.3945 293.13 94.4344 293.034 94.5054 292.963C94.5763 292.892 94.6725 292.852 94.7729 292.852H134.064C134.165 292.852 134.261 292.892 134.332 292.963C134.403 293.034 134.443 293.13 134.443 293.23V345.751C134.443 345.85 134.404 345.945 134.335 346.016C134.265 346.086 134.171 346.127 134.072 346.129ZM95.1588 345.372H133.694V293.609H95.1512L95.1588 345.372Z" fill="#DBDBDD"></path><path d="M128.881 325.46H101.296C100.746 325.46 100.301 325.906 100.301 326.455C100.301 327.005 100.746 327.45 101.296 327.45H128.881C129.431 327.45 129.876 327.005 129.876 326.455C129.876 325.906 129.431 325.46 128.881 325.46Z" fill="#DBDBDD"></path><path d="M138.101 318.894V353.111H90.751V318.894L114.426 335.804L138.101 318.894Z" fill="#738942"></path><path d="M128.881 316.905H101.296C100.746 316.905 100.301 317.351 100.301 317.9C100.301 318.45 100.746 318.895 101.296 318.895H128.881C129.431 318.895 129.876 318.45 129.876 317.9C129.876 317.351 129.431 316.905 128.881 316.905Z" fill="#DBDBDD"></path><path d="M128.881 309.012H101.296C100.746 309.012 100.301 309.458 100.301 310.008C100.301 310.557 100.746 311.003 101.296 311.003H128.881C129.431 311.003 129.876 310.557 129.876 310.008C129.876 309.458 129.431 309.012 128.881 309.012Z" fill="#DBDBDD"></path><path d="M128.883 301.123H107.413C106.864 301.123 106.418 301.568 106.418 302.118C106.418 302.667 106.864 303.113 107.413 303.113H128.883C129.432 303.113 129.878 302.667 129.878 302.118C129.878 301.568 129.432 301.123 128.883 301.123Z" fill="#738942"></path><path d="M533.795 92.1487H443.309C440.216 92.1486 437.249 93.37 435.052 95.5471C432.855 97.7242 431.608 100.681 431.58 103.773H545.539C545.509 100.679 544.258 97.7215 542.059 95.5445C539.859 93.3675 536.889 92.147 533.795 92.1487Z" fill="#B3B3BD"></path><path d="M431.573 103.773V171.082C431.573 172.609 432.18 174.074 433.26 175.154C434.34 176.234 435.805 176.841 437.333 176.842H539.776C541.304 176.842 542.769 176.235 543.85 175.155C544.931 174.075 545.538 172.609 545.538 171.082V103.773H431.573Z" fill="#DBDBDD"></path><path d="M534.311 143.447H496.633C494.226 143.447 492.275 145.398 492.275 147.805V167.735C492.275 170.142 494.226 172.093 496.633 172.093H534.311C536.718 172.093 538.67 170.142 538.67 167.735V147.805C538.67 145.398 536.718 143.447 534.311 143.447Z" fill="white"></path><path d="M534.311 172.474H496.635C495.38 172.472 494.177 171.974 493.289 171.087C492.401 170.201 491.9 168.999 491.896 167.744V147.807C491.9 146.553 492.401 145.351 493.289 144.464C494.177 143.578 495.38 143.079 496.635 143.078H534.311C535.566 143.079 536.769 143.578 537.657 144.464C538.545 145.351 539.046 146.553 539.05 147.807V167.735C539.048 168.991 538.548 170.196 537.66 171.084C536.772 171.972 535.567 172.472 534.311 172.474ZM496.635 143.825C495.581 143.826 494.57 144.245 493.824 144.989C493.077 145.734 492.656 146.744 492.653 147.798V167.725C492.656 168.78 493.077 169.789 493.824 170.534C494.57 171.278 495.581 171.697 496.635 171.698H534.311C535.365 171.697 536.376 171.278 537.122 170.533C537.868 169.789 538.289 168.779 538.293 167.725V147.807C538.289 146.753 537.868 145.744 537.122 144.999C536.376 144.255 535.365 143.836 534.311 143.835L496.635 143.825Z" fill="#DBDBDD"></path><path d="M519.909 156.292H516.952V153.335H513.994V156.292H511.035V159.251H513.994V162.207H516.952V159.251H519.909V156.292Z" fill="#B3B3BD"></path><path d="M480.47 143.449H442.792C440.385 143.449 438.434 145.4 438.434 147.807V167.737C438.434 170.144 440.385 172.095 442.792 172.095H480.47C482.877 172.095 484.829 170.144 484.829 167.737V147.807C484.829 145.4 482.877 143.449 480.47 143.449Z" fill="white"></path><path d="M480.468 172.472H442.792C441.539 172.469 440.338 171.97 439.452 171.083C438.565 170.197 438.066 168.996 438.063 167.742V147.807C438.066 146.554 438.565 145.353 439.452 144.466C440.338 143.58 441.539 143.081 442.792 143.078H480.468C481.722 143.081 482.922 143.581 483.809 144.467C484.695 145.353 485.194 146.554 485.198 147.807V167.735C485.196 168.989 484.698 170.192 483.811 171.08C482.925 171.968 481.723 172.468 480.468 172.472ZM442.792 143.827C441.74 143.831 440.731 144.25 439.987 144.994C439.243 145.739 438.823 146.747 438.82 147.8V167.727C438.823 168.78 439.243 169.788 439.987 170.532C440.731 171.277 441.74 171.696 442.792 171.7H480.468C481.521 171.696 482.529 171.277 483.274 170.532C484.018 169.788 484.438 168.78 484.441 167.727V147.807C484.438 146.755 484.018 145.746 483.274 145.002C482.529 144.258 481.521 143.838 480.468 143.835L442.792 143.827Z" fill="#DBDBDD"></path><path d="M534.311 108.522H496.633C494.226 108.522 492.275 110.473 492.275 112.88V132.81C492.275 135.217 494.226 137.168 496.633 137.168H534.311C536.718 137.168 538.67 135.217 538.67 132.81V112.88C538.67 110.473 536.718 108.522 534.311 108.522Z" fill="white"></path><path d="M534.311 137.547H496.635C495.38 137.546 494.177 137.047 493.289 136.161C492.4 135.274 491.9 134.072 491.896 132.817V112.88C491.9 111.626 492.401 110.424 493.289 109.537C494.177 108.651 495.38 108.152 496.635 108.151H534.311C535.564 108.154 536.765 108.654 537.651 109.54C538.537 110.426 539.037 111.627 539.04 112.88V132.81C539.039 134.064 538.541 135.268 537.654 136.155C536.768 137.043 535.566 137.544 534.311 137.547ZM496.635 108.9C495.581 108.901 494.57 109.32 493.824 110.064C493.077 110.809 492.656 111.819 492.653 112.873V132.802C492.656 133.856 493.077 134.866 493.824 135.611C494.57 136.355 495.581 136.774 496.635 136.775H534.311C535.363 136.771 536.372 136.352 537.116 135.607C537.86 134.863 538.28 133.855 538.284 132.802V112.88C538.28 111.828 537.86 110.819 537.116 110.075C536.372 109.331 535.363 108.911 534.311 108.908L496.635 108.9Z" fill="#DBDBDD"></path><path d="M484.829 112.881V132.81C484.829 133.964 484.37 135.071 483.554 135.887C482.739 136.703 481.632 137.161 480.478 137.161H442.792C441.639 137.161 440.532 136.703 439.716 135.887C438.9 135.071 438.441 133.964 438.441 132.81V112.881C438.441 111.727 438.9 110.62 439.716 109.804C440.532 108.988 441.639 108.53 442.792 108.53H480.468C481.041 108.528 481.607 108.64 482.136 108.858C482.665 109.076 483.146 109.396 483.551 109.801C483.956 110.205 484.277 110.685 484.497 111.213C484.716 111.742 484.829 112.308 484.829 112.881Z" fill="white"></path><path d="M480.468 137.547H442.792C441.802 137.548 440.836 137.238 440.031 136.661C439.226 136.084 438.622 135.269 438.305 134.331C438.139 133.843 438.055 133.332 438.056 132.817V112.88C438.059 111.627 438.558 110.426 439.445 109.54C440.331 108.654 441.532 108.154 442.785 108.151H480.461C481.714 108.155 482.914 108.654 483.801 109.54C484.687 110.427 485.186 111.627 485.19 112.88V132.81C485.189 134.063 484.691 135.265 483.806 136.152C482.922 137.04 481.722 137.541 480.468 137.547ZM442.792 108.9C441.74 108.904 440.732 109.323 439.987 110.067C439.243 110.812 438.823 111.82 438.82 112.873V132.802C438.819 133.235 438.89 133.665 439.03 134.075C439.295 134.865 439.802 135.551 440.478 136.037C441.155 136.522 441.967 136.783 442.8 136.782H480.476C481.528 136.779 482.537 136.359 483.281 135.615C484.025 134.871 484.445 133.862 484.449 132.81V112.88C484.445 111.828 484.025 110.819 483.281 110.075C482.537 109.331 481.528 108.911 480.476 108.908L442.792 108.9Z" fill="#DBDBDD"></path><path d="M484.829 120.315V132.815C484.829 133.969 484.37 135.076 483.554 135.892C482.738 136.708 481.632 137.166 480.478 137.166H442.792C441.881 137.166 440.992 136.88 440.251 136.349C439.511 135.818 438.955 135.067 438.663 134.204C443.263 131.052 454.705 123.78 458.971 126.242C464.364 129.357 464.419 129.045 467.222 129.045C470.026 129.045 482.288 122.046 484.191 120.948C484.453 120.793 484.672 120.576 484.829 120.315Z" fill="#738942"></path><path d="M538.67 122.651V132.81C538.67 133.964 538.211 135.07 537.395 135.886C536.579 136.702 535.473 137.161 534.319 137.161H496.635C496.063 137.162 495.496 137.05 494.967 136.832C494.438 136.614 493.957 136.294 493.552 135.89C493.147 135.486 492.826 135.006 492.607 134.477C492.388 133.949 492.275 133.382 492.275 132.81V128.866C494.641 127.696 498.289 126.52 501.319 128.268C506.257 131.119 507.547 131.59 514.085 130.759C520.622 129.929 523.123 115.542 527.37 117.994C531.617 120.445 528.719 123.752 536.92 122.844L538.67 122.651Z" fill="#443F34"></path><path d="M484.829 162.537V167.735C484.829 168.889 484.37 169.996 483.554 170.812C482.739 171.628 481.632 172.086 480.478 172.086H442.792C441.639 172.086 440.532 171.628 439.716 170.812C438.9 169.996 438.441 168.889 438.441 167.735V163.842C440.98 162.172 446.657 158.757 448.859 160.028C451.733 161.689 458.343 151.913 461.002 150.38C463.662 148.848 465.2 157.917 468.002 156.296C470.803 154.675 470.291 152.401 474.231 154.675C477.776 156.722 482.642 160.543 484.829 162.537Z" fill="#B3B3BD"></path><path d="M385.677 80.3916H355.332C353.712 80.3916 352.399 81.7044 352.399 83.3238V83.3257C352.399 84.9451 353.712 86.2579 355.332 86.2579H385.677C387.296 86.2579 388.609 84.9451 388.609 83.3257V83.3238C388.609 81.7044 387.296 80.3916 385.677 80.3916Z" fill="#B3B3BD"></path><path d="M409.596 80.3916H400.391C398.772 80.3916 397.459 81.7044 397.459 83.3238V83.3257C397.459 84.9451 398.772 86.2579 400.391 86.2579H409.596C411.216 86.2579 412.528 84.9451 412.528 83.3257V83.3238C412.528 81.7044 411.216 80.3916 409.596 80.3916Z" fill="#B3B3BD"></path><path d="M504.787 219.023C504.787 219.023 511.762 285.991 531.854 303.143C531.854 303.143 557.112 287.531 574.002 281.095C549.019 257.324 546.331 226.036 546.331 226.036C546.331 226.036 521.239 229.279 504.787 219.023Z" fill="white"></path><path d="M531.854 303.9C531.674 303.9 531.501 303.836 531.364 303.72C526.685 299.727 522.34 292.769 518.447 283.043C515.352 275.318 512.528 265.829 510.048 254.817C507.426 243.024 505.419 231.103 504.034 219.103C504.019 218.962 504.044 218.819 504.106 218.692C504.168 218.564 504.265 218.457 504.385 218.381C504.506 218.306 504.645 218.267 504.787 218.267C504.929 218.267 505.067 218.307 505.188 218.382C521.224 228.372 545.977 225.319 546.225 225.287C546.326 225.274 546.429 225.281 546.528 225.309C546.626 225.336 546.718 225.384 546.797 225.447C546.877 225.511 546.942 225.591 546.99 225.681C547.038 225.771 547.068 225.87 547.077 225.972C547.077 226.049 547.794 233.858 551.524 244.446C554.961 254.202 561.739 268.384 574.524 280.546C574.617 280.634 574.686 280.745 574.724 280.867C574.763 280.989 574.77 281.118 574.745 281.244C574.72 281.369 574.663 281.486 574.581 281.584C574.498 281.682 574.392 281.757 574.272 281.802C557.64 288.14 532.505 303.631 532.253 303.788C532.133 303.862 531.995 303.901 531.854 303.9ZM505.71 220.451C506.245 224.98 508.058 239.1 511.527 254.503C516.964 278.626 524.013 295.098 531.933 302.212C535.422 300.082 557.182 286.935 572.625 280.823C560.164 268.626 553.495 254.612 550.081 244.906C546.931 235.956 545.919 229.112 545.652 226.876C541.008 227.311 536.338 227.397 531.682 227.133C524.387 226.715 514.121 225.209 505.71 220.451Z" fill="#DBDBDD"></path><path d="M515.307 234.462C519.658 235.355 531.665 237.563 539.332 236.45C539.757 236.388 540.191 236.483 540.552 236.718C540.912 236.952 541.175 237.31 541.292 237.724C541.927 239.979 540.913 239.595 540.913 239.595C540.913 239.595 528.239 241.776 514.508 237.947C514.235 237.872 513.984 237.733 513.775 237.542C513.567 237.35 513.407 237.112 513.309 236.846L513.281 236.764C513.179 236.47 513.158 236.154 513.218 235.848C513.279 235.543 513.419 235.259 513.625 235.025C513.831 234.791 514.095 234.616 514.39 234.517C514.685 234.418 515.002 234.399 515.307 234.462Z" fill="#F2D44D"></path><path d="M517.955 244.889C522.225 245.771 534.496 248.05 542.22 246.883C542.646 246.817 543.08 246.916 543.435 247.159C543.79 247.403 544.039 247.772 544.131 248.192C544.135 248.207 544.138 248.222 544.141 248.238C544.186 248.468 544.183 248.706 544.132 248.936C544.081 249.166 543.983 249.382 543.844 249.572C543.705 249.762 543.528 249.921 543.324 250.039C543.121 250.157 542.895 250.232 542.661 250.258C538.689 250.697 528.095 251.425 517.232 248.389C516.971 248.316 516.73 248.182 516.529 247.999C516.329 247.815 516.175 247.586 516.08 247.331C516.046 247.237 516.016 247.142 515.988 247.061C515.9 246.778 515.888 246.478 515.952 246.189C516.016 245.901 516.154 245.633 516.352 245.414C516.551 245.195 516.803 245.031 517.084 244.939C517.365 244.847 517.665 244.83 517.955 244.889ZM521.377 255.651C525.755 256.38 537.835 258.13 545.448 256.732C545.871 256.653 546.308 256.731 546.678 256.951C547.048 257.171 547.325 257.518 547.459 257.927C547.636 258.472 548.244 259.022 546.914 259.493C542.801 260.952 531.182 261.661 520.704 259.164C520.429 259.1 520.173 258.97 519.958 258.787C519.742 258.604 519.574 258.372 519.467 258.111L519.434 258.031C519.322 257.74 519.288 257.424 519.337 257.116C519.386 256.808 519.516 256.518 519.714 256.276C519.911 256.034 520.169 255.849 520.461 255.739C520.753 255.63 521.069 255.599 521.377 255.651ZM551.45 266.393C551.294 265.99 550.997 265.659 550.614 265.46C550.231 265.261 549.788 265.209 549.369 265.312C547.273 265.823 544.818 266.107 542.272 266.243C541.978 266.258 541.694 266.347 541.444 266.501C541.194 266.654 540.987 266.869 540.841 267.124C540.696 267.378 540.617 267.666 540.612 267.959C540.606 268.253 540.675 268.543 540.811 268.803C540.974 269.112 541.226 269.366 541.535 269.531C541.843 269.696 542.194 269.765 542.542 269.73C546.269 269.351 549.296 268.699 550.989 267.987C552.298 267.441 551.658 266.924 551.45 266.393Z" fill="#DBDBDD"></path><path d="M349.84 394.461H346.813V392.948H349.83L349.84 394.461ZM343.786 394.461H340.775V392.948H343.79L343.786 394.461ZM337.754 394.461H334.738V392.948H337.754V394.461ZM331.723 394.461H328.696V392.948H331.723V394.461ZM325.69 394.461H322.675V392.948H325.69V394.461ZM319.657 394.461H316.63L316.647 392.948H319.653L319.657 394.461ZM353.086 393.504L352.297 392.21C353.058 391.75 353.698 391.114 354.163 390.356L355.455 391.141C354.865 392.106 354.055 392.916 353.09 393.504H353.086ZM313.375 393.143C312.572 392.307 312.132 391.189 312.149 390.031V389.83L313.662 389.889V390.031C313.652 390.408 313.717 390.784 313.854 391.136C313.99 391.489 314.194 391.811 314.455 392.083L313.375 393.143ZM356.48 388.06L355.001 387.742L355.632 384.793L357.114 385.11L356.48 388.06ZM314.215 387.059L312.735 386.741L313.367 383.794L314.848 384.112L314.215 387.059ZM357.746 382.161L356.266 381.843L356.9 378.894L358.379 379.212L357.746 382.161ZM315.48 381.162L314.001 380.845L314.635 377.895L316.114 378.213L315.48 381.162ZM359.011 376.263L357.532 375.947L358.165 372.998L359.645 373.315L359.011 376.263ZM316.746 375.264L315.267 374.946L315.9 371.997L317.38 372.315L316.746 375.264ZM360.279 370.366L358.797 370.048L359.431 367.099L360.91 367.417L360.279 370.366ZM318.013 369.366L316.532 369.05L317.166 366.1L318.645 366.418L318.013 369.366ZM361.544 364.468L360.065 364.15L360.697 361.201L362.178 361.519L361.544 364.468ZM319.279 363.469L317.8 363.151L318.431 360.202L319.913 360.52L319.279 363.469ZM362.81 358.571L361.33 358.253L361.962 355.304L363.443 355.622L362.81 358.571ZM320.544 357.571L319.065 357.253L319.699 354.303L321.178 354.621L320.544 357.571ZM364.075 352.673L362.596 352.355L363.23 349.406L364.709 349.724L364.075 352.673ZM321.814 351.674L320.334 351.356L320.968 348.407L322.448 348.725L321.814 351.674ZM365.347 346.774L363.865 346.457L364.499 343.509L365.978 343.825L365.347 346.774ZM323.081 345.776L321.6 345.458L322.234 342.508L323.713 342.826L323.081 345.776ZM366.616 340.878L365.135 340.56L365.768 337.611L367.248 337.929L366.616 340.878ZM324.351 339.877L322.871 339.559L323.503 336.612L324.982 336.928L324.351 339.877ZM367.881 334.979L366.402 334.662L367.034 331.712L368.515 332.03L367.881 334.979ZM325.616 333.981L324.137 333.663L324.769 330.713L326.25 331.031L325.616 333.981ZM369.147 329.081L367.668 328.763L368.301 325.816L369.781 326.134L369.147 329.081ZM326.882 328.082L325.402 327.764L326.036 324.815L327.516 325.133L326.882 328.082ZM370.413 323.184L368.933 322.867L369.567 319.917L371.046 320.235L370.413 323.184ZM328.147 322.184L326.668 321.866L327.302 318.919L328.781 319.236L328.147 322.184ZM371.627 317.144L370.114 317.089V316.955C370.13 316.19 369.843 315.45 369.315 314.897L370.394 313.835C371.201 314.672 371.644 315.793 371.627 316.955C371.627 317.017 371.625 317.082 371.623 317.144H371.627ZM329.63 316.624L328.338 315.835C328.93 314.871 329.744 314.062 330.713 313.476L331.498 314.77C330.732 315.229 330.087 315.865 329.617 316.624H329.63ZM367.134 314.038H364.123V312.524H367.149L367.134 314.038ZM361.107 314.038H358.09V312.524H361.107V314.038ZM355.074 314.038H352.049V312.524H355.065L355.074 314.038ZM349.042 314.038H346.026V312.524H349.023L349.042 314.038ZM343.011 314.038H339.984V312.524H343.011V314.038ZM336.978 314.038H333.97V312.524H336.986L336.978 314.038ZM412.184 351.033H409.11V349.519H412.167L412.184 351.033ZM406.053 351.033H402.996V349.519H406.053V351.033ZM399.939 351.033H396.884V349.519H399.941L399.939 351.033ZM393.825 351.033H390.768V349.519H393.825V351.033ZM387.711 351.033H384.654V349.519H387.711V351.033ZM381.597 351.033H378.534V349.519H381.591L381.597 351.033ZM375.439 351.023C374.824 351 374.221 350.85 373.668 350.582C373.114 350.314 372.622 349.934 372.223 349.466L373.388 348.5C373.655 348.807 373.983 349.055 374.351 349.23C374.719 349.404 375.119 349.5 375.526 349.512L375.439 351.023ZM415.472 350.047L414.674 348.761C415.44 348.287 416.079 347.634 416.535 346.858L417.844 347.614C417.263 348.606 416.449 349.441 415.472 350.047ZM372.77 346.203L371.268 346.031C371.288 345.85 371.317 345.671 371.355 345.494L371.898 342.964L373.377 343.282L372.836 345.81C372.808 345.942 372.785 346.074 372.77 346.203ZM418.834 344.501L417.354 344.185L417.996 341.196L419.475 341.513L418.834 344.501ZM374.02 340.299L372.539 339.981L373.18 336.992L374.661 337.31L374.02 340.299ZM420.116 338.524L418.637 338.207L419.278 335.218L420.757 335.536L420.116 338.524ZM375.303 334.321L373.823 334.003L374.465 331.014L375.944 331.332L375.303 334.321ZM421.401 332.547L419.919 332.229L420.563 329.24L422.042 329.558L421.401 332.547ZM376.585 328.343L375.106 328.025L375.747 325.036L377.227 325.354L376.585 328.343ZM422.683 326.569L421.204 326.251L421.845 323.262L423.325 323.58L422.683 326.569ZM377.868 322.352L376.389 322.034L377.03 319.045L378.511 319.363L377.868 322.352ZM423.966 320.578L422.487 320.26L423.028 317.74C423.056 317.608 423.078 317.475 423.092 317.341L424.596 317.509C424.576 317.693 424.547 317.875 424.507 318.056L423.966 320.578ZM379.33 316.686L378.023 315.93C378.606 314.941 379.422 314.109 380.399 313.506L381.196 314.793C380.428 315.265 379.788 315.918 379.33 316.694V316.686ZM422.462 315.046C422.194 314.739 421.866 314.491 421.497 314.317C421.128 314.144 420.728 314.049 420.32 314.038L420.408 312.524C421.021 312.547 421.624 312.696 422.178 312.963C422.731 313.229 423.223 313.608 423.623 314.074L422.462 315.046ZM417.307 314.03H414.25V312.517H417.315L417.307 314.03ZM411.193 314.03H408.136V312.517H411.193V314.03ZM405.079 314.03H402.029V312.517H405.086L405.079 314.03ZM398.965 314.03H395.908V312.517H398.965V314.03ZM392.851 314.03H389.793V312.517H392.851V314.03ZM386.736 314.03H383.689L383.679 312.517H386.736V314.03ZM402.831 394.601H399.757V393.088H402.814L402.831 394.601ZM396.7 394.601H393.643V393.088H396.695L396.7 394.601ZM390.586 394.601H387.529V393.088H390.586V394.601ZM384.472 394.601H381.415V393.088H384.472V394.601ZM378.358 394.601H375.301V393.088H378.358V394.601ZM372.244 394.601H369.187V393.088H372.244V394.601ZM366.086 394.592C365.472 394.569 364.869 394.418 364.315 394.15C363.762 393.882 363.27 393.503 362.87 393.035L364.036 392.068C364.303 392.376 364.631 392.624 364.999 392.798C365.368 392.973 365.768 393.069 366.175 393.08L366.086 394.592ZM406.119 393.616L405.321 392.329C406.087 391.856 406.726 391.203 407.182 390.426L408.491 391.183C407.91 392.174 407.096 393.009 406.119 393.616ZM363.419 389.772L361.915 389.598C361.936 389.422 361.964 389.242 362.002 389.062L362.545 386.533L364.026 386.851L363.483 389.378C363.455 389.508 363.433 389.639 363.419 389.772ZM409.481 388.069L408.001 387.751L408.643 384.762L410.122 385.08L409.481 388.069ZM364.667 383.868L363.188 383.55L363.829 380.561L365.309 380.879L364.667 383.868ZM410.765 382.091L409.284 381.773L409.925 378.785L411.407 379.102L410.765 382.091ZM365.95 377.89L364.471 377.572L365.112 374.583L366.591 374.901L365.95 377.89ZM412.048 376.113L410.569 375.796L411.21 372.807L412.689 373.124L412.048 376.113ZM367.233 371.916L365.753 371.598L366.395 368.609L367.876 368.927L367.233 371.916ZM413.33 370.139L411.851 369.821L412.492 366.834L413.972 367.15L413.33 370.139ZM368.517 365.938L367.036 365.62L367.679 362.631L369.158 362.949L368.517 365.938ZM414.613 364.161L413.134 363.844L413.675 361.326C413.703 361.191 413.726 361.057 413.741 360.925L415.245 361.095C415.224 361.279 415.194 361.462 415.154 361.643L414.613 364.161ZM369.978 360.27L368.672 359.513C369.253 358.523 370.068 357.691 371.046 357.09L371.843 358.376C371.078 358.844 370.438 359.491 369.978 360.261V360.27ZM413.119 358.63C412.85 358.324 412.522 358.076 412.153 357.902C411.785 357.729 411.384 357.633 410.977 357.622L411.062 356.108C411.676 356.13 412.279 356.279 412.833 356.546C413.386 356.812 413.878 357.191 414.278 357.658L413.119 358.63ZM407.962 357.616H404.905V356.103H407.962V357.616ZM401.848 357.616H398.791V356.103H401.848V357.616ZM395.734 357.616H392.676V356.103H395.734V357.616ZM389.619 357.616H386.562V356.103H389.619V357.616ZM383.507 357.616H380.45V356.103H383.507V357.616ZM377.393 357.616H374.321L374.336 356.103H377.399L377.393 357.616ZM403.76 329.756H400.399L401.116 326.417H397.048L396.331 329.756H392.972L392.103 333.801H395.463L394.746 337.14H398.815L399.532 333.801H402.892L403.76 329.756Z" fill="white"></path><path d="M398.815 337.897H394.746C394.633 337.897 394.522 337.872 394.42 337.823C394.318 337.775 394.228 337.704 394.158 337.616C394.087 337.528 394.036 337.426 394.01 337.316C393.984 337.206 393.983 337.092 394.006 336.982L394.527 334.558H392.103C391.99 334.558 391.879 334.533 391.777 334.484C391.675 334.436 391.586 334.365 391.515 334.277C391.444 334.189 391.393 334.087 391.367 333.977C391.341 333.867 391.34 333.753 391.364 333.643L392.23 329.598C392.266 329.429 392.36 329.277 392.495 329.168C392.63 329.059 392.798 329 392.972 329H395.72L396.309 326.259C396.345 326.09 396.438 325.938 396.573 325.83C396.707 325.721 396.875 325.661 397.048 325.661H401.115C401.228 325.661 401.34 325.687 401.442 325.735C401.543 325.784 401.633 325.855 401.704 325.943C401.775 326.03 401.825 326.133 401.851 326.243C401.878 326.352 401.879 326.467 401.855 326.577L401.335 329H403.76C403.873 329 403.984 329.026 404.086 329.074C404.188 329.123 404.278 329.194 404.349 329.282C404.419 329.369 404.47 329.472 404.496 329.582C404.522 329.691 404.523 329.806 404.5 329.916L403.631 333.96C403.595 334.13 403.502 334.281 403.367 334.39C403.233 334.499 403.065 334.558 402.892 334.558H400.143L399.555 337.299C399.518 337.469 399.425 337.62 399.291 337.729C399.156 337.838 398.988 337.897 398.815 337.897ZM395.682 336.384H398.208L398.796 333.643C398.833 333.473 398.926 333.321 399.061 333.212C399.196 333.104 399.364 333.044 399.538 333.045H402.286L402.829 330.514H400.404C400.291 330.514 400.18 330.488 400.078 330.44C399.976 330.391 399.887 330.32 399.816 330.232C399.745 330.145 399.694 330.042 399.668 329.932C399.642 329.823 399.641 329.708 399.664 329.598L400.185 327.175H397.659L397.073 329.92C397.036 330.089 396.943 330.241 396.809 330.349C396.674 330.458 396.506 330.517 396.333 330.517H393.584L393.042 333.049H395.465C395.578 333.049 395.689 333.074 395.791 333.123C395.893 333.171 395.982 333.242 396.053 333.33C396.124 333.418 396.175 333.52 396.201 333.63C396.227 333.74 396.228 333.854 396.204 333.964L395.682 336.384Z" fill="#DBDBDD"></path><path d="M394.407 373.325H391.048L391.765 369.986H387.696L386.979 373.325H383.619L382.751 377.37H386.11L385.393 380.708H389.462L390.179 377.37H393.539L394.407 373.325Z" fill="white"></path><path d="M389.462 381.465H385.393C385.28 381.465 385.169 381.44 385.067 381.391C384.965 381.343 384.876 381.272 384.805 381.184C384.734 381.096 384.683 380.994 384.657 380.884C384.631 380.774 384.63 380.66 384.654 380.55L385.174 378.126H382.75C382.638 378.126 382.526 378.101 382.424 378.052C382.323 378.004 382.233 377.933 382.162 377.845C382.091 377.757 382.041 377.655 382.015 377.545C381.988 377.435 381.987 377.321 382.011 377.211L382.879 373.166C382.915 372.997 383.009 372.845 383.143 372.737C383.278 372.628 383.446 372.568 383.619 372.568H386.367L386.956 369.827C386.992 369.658 387.085 369.506 387.22 369.398C387.355 369.289 387.522 369.23 387.695 369.229H391.765C391.877 369.23 391.989 369.255 392.091 369.303C392.193 369.352 392.282 369.423 392.353 369.511C392.424 369.598 392.474 369.701 392.501 369.811C392.527 369.921 392.528 370.035 392.504 370.145L391.984 372.568H394.407C394.52 372.568 394.632 372.594 394.733 372.642C394.835 372.691 394.925 372.762 394.996 372.85C395.067 372.937 395.117 373.04 395.143 373.15C395.169 373.259 395.171 373.374 395.147 373.484L394.279 377.529C394.242 377.698 394.149 377.849 394.015 377.958C393.88 378.067 393.712 378.126 393.539 378.126H390.79L390.202 380.867C390.166 381.037 390.072 381.188 389.938 381.297C389.803 381.406 389.635 381.465 389.462 381.465ZM386.33 379.952H388.851L389.44 377.211C389.476 377.042 389.569 376.89 389.704 376.781C389.838 376.672 390.006 376.613 390.179 376.613H392.928L393.471 374.082H391.048C390.935 374.082 390.823 374.056 390.722 374.008C390.62 373.959 390.53 373.888 390.459 373.801C390.388 373.713 390.338 373.61 390.312 373.501C390.286 373.391 390.284 373.277 390.308 373.166L390.828 370.743H388.306L387.718 373.484C387.682 373.653 387.589 373.805 387.454 373.914C387.319 374.022 387.152 374.082 386.978 374.082H384.23L383.687 376.613H386.11C386.223 376.613 386.334 376.638 386.436 376.687C386.538 376.736 386.628 376.806 386.699 376.894C386.77 376.982 386.82 377.084 386.846 377.194C386.872 377.304 386.874 377.418 386.85 377.529L386.33 379.952Z" fill="#DBDBDD"></path><path d="M347.717 351.472H344.358L345.075 348.131H341.007L340.29 351.472H336.929L336.062 355.515H339.422L338.705 358.854H342.772L343.489 355.515H346.849L347.717 351.472Z" fill="white"></path><path d="M342.78 359.62H338.713C338.6 359.619 338.489 359.594 338.387 359.546C338.285 359.497 338.196 359.427 338.125 359.339C338.054 359.251 338.004 359.149 337.977 359.04C337.951 358.93 337.95 358.816 337.973 358.706L338.493 356.281H336.07C335.957 356.281 335.845 356.256 335.743 356.208C335.641 356.159 335.551 356.088 335.48 356.001C335.409 355.912 335.359 355.81 335.333 355.7C335.307 355.59 335.305 355.476 335.328 355.365L336.197 351.322C336.233 351.153 336.326 351.002 336.461 350.893C336.595 350.784 336.763 350.725 336.936 350.725H339.685L340.273 347.982C340.31 347.812 340.403 347.66 340.538 347.551C340.673 347.443 340.841 347.383 341.015 347.384H345.082C345.195 347.384 345.306 347.409 345.408 347.458C345.51 347.506 345.6 347.577 345.671 347.665C345.742 347.753 345.792 347.855 345.818 347.965C345.844 348.075 345.846 348.189 345.822 348.299L345.302 350.725H347.725C347.838 350.725 347.949 350.75 348.051 350.799C348.153 350.847 348.242 350.918 348.313 351.006C348.384 351.094 348.435 351.196 348.461 351.306C348.487 351.416 348.488 351.53 348.465 351.64L347.598 355.683C347.562 355.852 347.469 356.004 347.334 356.112C347.199 356.221 347.032 356.281 346.858 356.281H344.104L343.514 359.022C343.478 359.19 343.385 359.341 343.252 359.45C343.118 359.558 342.952 359.618 342.78 359.62ZM339.649 358.106H342.169L342.757 355.365C342.793 355.196 342.887 355.044 343.021 354.935C343.156 354.827 343.324 354.767 343.497 354.767H346.246L346.788 352.238H344.365C344.252 352.238 344.141 352.213 344.039 352.164C343.937 352.115 343.848 352.045 343.777 351.957C343.706 351.869 343.655 351.767 343.629 351.657C343.603 351.547 343.602 351.433 343.625 351.322L344.146 348.897H341.626L341.038 351.64C341.001 351.809 340.908 351.961 340.773 352.07C340.639 352.179 340.471 352.238 340.298 352.238H337.549L337.004 354.767H339.43C339.542 354.767 339.654 354.793 339.756 354.841C339.857 354.89 339.947 354.961 340.018 355.048C340.089 355.136 340.139 355.239 340.166 355.348C340.192 355.458 340.193 355.572 340.169 355.683L339.649 358.106Z" fill="#DBDBDD"></path><path d="M59.3821 324.587C63.649 324.587 67.108 321.128 67.108 316.861C67.108 312.594 63.649 309.135 59.3821 309.135C55.1153 309.135 51.6562 312.594 51.6562 316.861C51.6562 321.128 55.1153 324.587 59.3821 324.587Z" fill="#738942"></path><path d="M327.667 175.383C333.013 175.383 337.347 171.049 337.347 165.703C337.347 160.357 333.013 156.023 327.667 156.023C322.321 156.023 317.987 160.357 317.987 165.703C317.987 171.049 322.321 175.383 327.667 175.383Z" fill="#738942"></path><path d="M478.824 265.056C484.17 265.056 488.504 260.722 488.504 255.376C488.504 250.03 484.17 245.696 478.824 245.696C473.478 245.696 469.144 250.03 469.144 255.376C469.144 260.722 473.478 265.056 478.824 265.056Z" fill="#738942"></path><path d="M216.245 97.3699C216.228 97.4475 216.119 97.5061 215.945 97.5477C215.77 97.5893 215.532 97.6007 215.245 97.648C214.521 97.7197 213.807 97.874 213.118 98.1077C211.507 98.6525 210.345 99.5605 210.11 99.3392C209.991 99.2332 210.15 98.836 210.595 98.3593C211.192 97.7428 211.928 97.2789 212.742 97.0067C212.861 96.9688 212.98 96.9253 213.099 96.8951L213.455 96.8175C213.681 96.7714 213.91 96.743 214.14 96.7324C214.528 96.7088 214.917 96.7407 215.296 96.827C215.554 96.874 215.801 96.9676 216.026 97.1031C216.189 97.2015 216.264 97.2923 216.245 97.3699Z" fill="#443F34"></path><path d="M214.762 104.291C215.568 104.152 216.088 103.259 215.923 102.296C215.757 101.334 214.969 100.666 214.163 100.804C213.357 100.943 212.837 101.835 213.003 102.798C213.168 103.761 213.956 104.429 214.762 104.291Z" fill="#433F34"></path><path d="M219.751 98.9574C219.703 98.8931 219.72 98.7909 219.796 98.6585C219.901 98.4797 220.039 98.3225 220.203 98.195C220.729 97.7676 221.36 97.4892 222.03 97.3891C222.395 97.3263 222.766 97.3104 223.135 97.3418C223.435 97.3674 223.731 97.431 224.015 97.531C224.499 97.7051 224.752 97.951 224.698 98.0985C224.593 98.4012 223.491 98.3028 222.223 98.5317C221.673 98.6258 221.128 98.7521 220.592 98.9101C220.413 98.9595 220.231 98.9974 220.048 99.0236C219.904 99.0444 219.798 99.0217 219.751 98.9574Z" fill="#443F34"></path><path d="M223.217 103.235C223.858 103.092 224.222 102.273 224.029 101.405C223.836 100.537 223.159 99.9493 222.518 100.092C221.876 100.235 221.513 101.054 221.706 101.922C221.899 102.79 222.575 103.378 223.217 103.235Z" fill="#433F34"></path><path d="M218.782 112.044C218.283 112.044 217.719 111.964 217.335 111.677C217.2 111.577 217.088 111.448 217.008 111.301C216.928 111.153 216.881 110.989 216.871 110.821C216.868 110.772 216.874 110.722 216.889 110.675C216.905 110.627 216.93 110.583 216.962 110.546C216.995 110.508 217.034 110.477 217.079 110.454C217.123 110.432 217.172 110.419 217.221 110.415C217.271 110.411 217.321 110.417 217.368 110.433C217.416 110.448 217.459 110.473 217.497 110.506C217.535 110.538 217.566 110.578 217.588 110.622C217.611 110.667 217.624 110.715 217.628 110.765C217.63 110.825 217.645 110.884 217.673 110.937C217.702 110.99 217.742 111.036 217.791 111.071C218.186 111.368 219.185 111.304 219.722 111.192C219.752 111.189 219.783 111.189 219.813 111.192C220.715 111.226 222.127 111.096 222.444 110.695C222.468 110.665 222.484 110.63 222.489 110.592C222.495 110.555 222.491 110.516 222.477 110.481C222.352 110.025 221.922 108.996 221.47 107.904C220.587 105.78 219.579 103.364 219.569 102.379C219.567 102.278 219.605 102.181 219.675 102.109C219.745 102.037 219.84 101.995 219.941 101.994C220.041 101.992 220.138 102.03 220.21 102.1C220.282 102.17 220.324 102.265 220.326 102.365C220.339 103.215 221.396 105.757 222.168 107.615C222.651 108.777 223.069 109.779 223.207 110.282C223.253 110.432 223.261 110.591 223.232 110.745C223.202 110.899 223.135 111.044 223.037 111.166C222.39 111.979 220.345 111.968 219.821 111.951C219.478 112.013 219.13 112.044 218.782 112.044Z" fill="#433F34"></path><path d="M218.546 115.521C218.58 115.676 218.294 115.899 217.77 116.034C217.461 116.115 217.143 116.156 216.824 116.155C216.406 116.157 215.992 116.079 215.604 115.924C215.496 115.875 215.39 115.828 215.29 115.771C215.19 115.714 215.089 115.646 215 115.582C214.833 115.45 214.683 115.299 214.552 115.131C214.32 114.84 214.174 114.489 214.132 114.119C214.103 113.875 214.144 113.628 214.251 113.406C214.335 113.253 214.44 113.189 214.51 113.217C214.666 113.259 214.728 113.567 214.927 113.913C215.041 114.104 215.184 114.276 215.35 114.424C215.452 114.512 215.559 114.593 215.672 114.666L215.848 114.766L216.037 114.857C216.581 115.041 217.144 115.164 217.715 115.224C218.192 115.288 218.512 115.362 218.546 115.521Z" fill="#443F34"></path><path d="M199.861 99.8841C199.861 99.8841 195.788 95.0507 193.298 98.802C191.361 101.717 194.534 108.562 196.929 108.562C199.324 108.562 199.861 99.8841 199.861 99.8841Z" fill="#FFB6A6"></path><path d="M198.423 103.408C198.423 103.408 197.667 101.632 196.895 102.71C196.123 103.789 196.219 105.767 196.49 105.767C196.76 105.767 198.03 105.554 198.153 105.431C198.276 105.308 198.423 103.408 198.423 103.408Z" fill="#FF8370"></path></svg> 